<svg xmlns="http://www.w3.org/2000/svg" version="1.1" xmlns:xlink="http://www.w3.org/1999/xlink" xmlns:svgjs="http://svgjs.dev/svgjs" width="1500" height="1500" viewBox="0 0 1500 1500"><rect width="1500" height="1500" fill="#ffffff"></rect><g transform="matrix(0.6666666666666666,0,0,0.6666666666666666,249.39393939393938,669.8688247882247)"><svg viewBox="0 0 396 64" data-background-color="#ffffff" preserveAspectRatio="xMidYMid meet" height="242" width="1500" xmlns="http://www.w3.org/2000/svg" xmlns:xlink="http://www.w3.org/1999/xlink"><g id="tight-bounds" transform="matrix(1,0,0,1,0.2400000000000091,-0.21242636227094636)"><svg viewBox="0 0 395.52 64.42485272454189" height="64.42485272454189" width="395.52"><g><svg viewBox="0 0 395.52 64.42485272454189" height="64.42485272454189" width="395.52"><g><svg viewBox="0 0 395.52 64.42485272454189" height="64.42485272454189" width="395.52"><g><svg viewBox="0 0 488.7253190462707 79.60673721255749" height="64.42485272454189" width="395.52"><g transform="matrix(1,0,0,1,0,11.002088862227556)"><svg viewBox="0 0 395.52 57.60255948810238" height="57.60255948810238" width="395.52"><g id="textblocktransform"><svg viewBox="0 0 395.52 57.60255948810238" height="57.60255948810238" width="395.52" id="textblock"><g><svg viewBox="0 0 395.52 57.60255948810238" height="57.60255948810238" width="395.52"><g transform="matrix(1,0,0,1,0,0)"><svg width="395.52" viewBox="1.49 -38.99 366.25 53.35" height="57.60255948810238" data-palette-color="#2f8340"><path d="M1.49-0.49L16.41-33.84Q17.24-34.35 18.31-35.79L18.31-35.79 18.55-35.79 32.01-3.39Q32.91-1.22 35.69-0.34L35.69-0.34 35.69 0.1Q34.11-0.07 31.88 0.04 29.66 0.15 27.95 0.44L27.95 0.44 27.76 0.2Q28.25-0.44 27.99-1.93 27.73-3.42 26.49-6.45L26.49-6.45 22.46-16.55Q15.28-16.67 10.6-16.5L10.6-16.5 4.96-3.39Q4.44-2.27 5.33-1.51 6.23-0.76 8.84-0.24L8.84-0.24 8.74 0.2Q4.49-0.12 1.81 0L1.81 0Q1.66-0.15 1.49-0.49L1.49-0.49ZM16.75-30.69L11.25-17.94Q14.79-17.85 21.85-17.94L21.85-17.94 16.75-30.69ZM60.01 6.2L60.01 6.2Q60.01 8.64 58.19 10.53 56.37 12.43 53.49 13.39 50.61 14.36 47.26 14.36L47.26 14.36Q44.7 14.36 42.65 13.67 40.6 12.99 39.26 11.4 37.91 9.81 37.91 7.54L37.91 7.54Q37.91 5.18 39.99 3.15 42.06 1.12 45.46-0.29L45.46-0.29Q42.38-0.98 41.04-1.79 39.69-2.61 39.69-4.35L39.69-4.35Q39.69-5.88 40.65-6.82 41.6-7.76 43.89-8.35L43.89-8.35Q41.21-9.18 39.71-11.21 38.21-13.23 38.21-16.46L38.21-16.46Q38.21-18.8 39.58-20.87 40.96-22.95 43.22-24.17 45.48-25.39 47.95-25.39L47.95-25.39Q50.78-25.39 52.95-24.51L52.95-24.51 60.96-25.39 61.15-24.56 59.4-22.75 55.05-23.14Q57.57-20.9 57.57-16.65L57.57-16.65Q57.57-14.5 56.27-12.48 54.98-10.45 52.71-9.16 50.44-7.86 47.85-7.86L47.85-7.86Q44.33-7.25 43.34-6.79 42.36-6.32 42.36-5.3L42.36-5.3Q42.36-4.69 43.7-4.11 45.04-3.54 49-2.54L49-2.54Q50.8-2.1 52.05-1.75 53.29-1.39 54.54-0.94 55.78-0.49 56.58-0.02 57.37 0.44 58.09 1.06 58.81 1.68 59.19 2.43 59.57 3.17 59.79 4.1 60.01 5.03 60.01 6.2ZM48.75 0.34L48.75 0.34 47.75 0.1Q44.68 1.25 42.89 3.2 41.11 5.15 41.11 7.15L41.11 7.15Q41.11 8.57 41.88 9.66 42.65 10.74 43.94 11.35 45.24 11.96 46.7 12.26 48.17 12.55 49.75 12.55L49.75 12.55Q56.91 12.55 56.91 6.96L56.91 6.96Q56.91 4.25 54.87 2.73 52.83 1.22 48.75 0.34ZM46.95-23.66L46.95-23.66Q43.87-23.66 42.69-22.08 41.5-20.51 41.5-16.85L41.5-16.85Q41.5-15.14 42.05-13.81 42.6-12.48 43.43-11.71 44.26-10.94 45.37-10.44 46.48-9.94 47.45-9.77 48.41-9.59 49.36-9.59L49.36-9.59Q51.85-9.59 53.05-11.38 54.25-13.16 54.25-16.26L54.25-16.26Q54.25-18.04 53.7-19.42 53.15-20.8 52.35-21.57 51.56-22.34 50.51-22.84 49.46-23.34 48.61-23.5 47.75-23.66 46.95-23.66ZM68.04-2.44L68.04-18.09Q68.04-19.73 67.88-20.83 67.72-21.92 67.32-22.58 66.91-23.24 66.21-23.51 65.5-23.78 63.74-23.75L63.74-23.75 63.64-24.19Q67.62-25.39 71.04-25.39L71.04-25.39Q71.55-24.1 71.55-22.61L71.55-22.61 71.55-19.6 71.65-19.51Q72.68-20.92 73.62-22.02 74.56-23.12 75.53-23.85 76.51-24.58 77.58-24.96 78.66-25.34 79.98-25.34L79.98-25.34Q80.81-25.34 81.81-25.2L81.81-25.2 80.39-19.24 79.49-19.51Q79.49-19.87 79.44-20.51 79.39-21.14 79.3-21.77 79.22-22.39 79.08-22.84 78.95-23.29 78.78-23.29L78.78-23.29Q78.07-23.29 77.35-22.99 76.63-22.68 75.78-22 74.92-21.31 73.9-20.21 72.87-19.12 71.55-17.55L71.55-17.55 71.55-3.34Q71.55-2.56 71.67-2.09 71.8-1.61 72.19-1.29 72.58-0.98 73.29-0.73 73.99-0.49 75.14-0.2L75.14-0.2 74.95 0.39Q73.53 0.2 72.54 0.1 71.55 0 70.94 0L70.94 0Q69.55 0 67.7 0.39L67.7 0.39 67.55 0.15Q68.04-0.56 68.04-2.44L68.04-2.44ZM103.8-17.65L103.8-2.76Q103.8-2.34 103.98-1.99 104.17-1.64 104.42-1.4 104.68-1.17 105.17-0.95 105.66-0.73 106.02-0.61 106.39-0.49 107.05-0.29L107.05-0.29 106.85 0.29Q105.29 0 103.75 0L103.75 0Q101.82 0 99.94 0.39L99.94 0.39 99.8 0.15Q100.31-0.56 100.31-2.44L100.31-2.44 100.31-4.05Q99.09-1.78 96.51-0.39 93.94 1 91.3 1L91.3 1Q88.49 1 86.77-0.45 85.05-1.9 85.05-4.76L85.05-4.76Q85.05-6.62 85.82-8.07 86.59-9.52 87.87-10.53 89.15-11.55 91.17-12.33 93.18-13.11 95.32-13.6 97.45-14.09 100.31-14.5L100.31-14.5 100.31-16.75Q100.31-23.46 95.01-23.46L95.01-23.46Q93.3-23.46 90.83-22.62 88.35-21.78 86.66-20.41L86.66-20.41 85.66-21.56Q87.79-23.24 90.7-24.34 93.62-25.44 96.16-25.44L96.16-25.44Q97.28-25.44 98.3-25.23 99.31-25.02 100.35-24.48 101.38-23.93 102.13-23.08 102.87-22.24 103.34-20.84 103.8-19.43 103.8-17.65L103.8-17.65ZM92.45-0.85L92.45-0.85Q94.57-0.85 96.89-2.26 99.21-3.66 100.31-5.76L100.31-5.76 100.31-13.21Q94.06-12.3 91.39-10.44 88.71-8.57 88.71-5L88.71-5Q88.71-2.83 89.64-1.84 90.57-0.85 92.45-0.85ZM114.93-2.44L114.93-18.09Q114.93-19.73 114.77-20.83 114.61-21.92 114.21-22.58 113.81-23.24 113.1-23.51 112.39-23.78 110.63-23.75L110.63-23.75 110.54-24.19Q114.52-25.39 117.93-25.39L117.93-25.39Q118.45-24.1 118.45-22.61L118.45-22.61 118.45-19.6 118.54-19.51Q119.57-20.92 120.51-22.02 121.45-23.12 122.43-23.85 123.4-24.58 124.48-24.96 125.55-25.34 126.87-25.34L126.87-25.34Q127.7-25.34 128.7-25.2L128.7-25.2 127.28-19.24 126.38-19.51Q126.38-19.87 126.33-20.51 126.28-21.14 126.2-21.77 126.11-22.39 125.98-22.84 125.84-23.29 125.67-23.29L125.67-23.29Q124.97-23.29 124.25-22.99 123.53-22.68 122.67-22 121.82-21.31 120.79-20.21 119.77-19.12 118.45-17.55L118.45-17.55 118.45-3.34Q118.45-2.56 118.57-2.09 118.69-1.61 119.08-1.29 119.47-0.98 120.18-0.73 120.89-0.49 122.04-0.2L122.04-0.2 121.84 0.39Q120.42 0.2 119.44 0.1 118.45 0 117.84 0L117.84 0Q116.45 0 114.59 0.39L114.59 0.39 114.44 0.15Q114.93-0.56 114.93-2.44L114.93-2.44ZM135.34-2.44L135.34-18.09Q135.34-21.56 134.52-22.74 133.7-23.93 131.04-23.75L131.04-23.75 130.94-24.19Q134.97-25.39 138.34-25.39L138.34-25.39Q138.85-24.12 138.85-22.61L138.85-22.61 138.85-4.39Q138.85-2.47 139.76-1.54 140.66-0.61 142.96-0.2L142.96-0.2 142.76 0.39Q139.95 0 138.43 0 136.9 0 135 0.39L135 0.39 134.85 0.15Q135.34-0.56 135.34-2.44L135.34-2.44ZM132.85-34.45L132.85-34.45Q135.17-35.79 138.1-36.69L138.1-36.69Q138.1-34.67 138.76-32.69L138.76-32.69 138.44-32.25Q136.12-32.1 133.61-30.96L133.61-30.96Q133-32.64 132.85-34.45ZM165.19-17.65L165.19-2.76Q165.19-2.34 165.38-1.99 165.56-1.64 165.82-1.4 166.07-1.17 166.56-0.95 167.05-0.73 167.42-0.61 167.78-0.49 168.44-0.29L168.44-0.29 168.25 0.29Q166.68 0 165.15 0L165.15 0Q163.22 0 161.34 0.39L161.34 0.39 161.19 0.15Q161.7-0.56 161.7-2.44L161.7-2.44 161.7-4.05Q160.48-1.78 157.91-0.39 155.33 1 152.69 1L152.69 1Q149.89 1 148.17-0.45 146.44-1.9 146.44-4.76L146.44-4.76Q146.44-6.62 147.21-8.07 147.98-9.52 149.26-10.53 150.55-11.55 152.56-12.33 154.57-13.11 156.71-13.6 158.85-14.09 161.7-14.5L161.7-14.5 161.7-16.75Q161.7-23.46 156.41-23.46L156.41-23.46Q154.7-23.46 152.22-22.62 149.74-21.78 148.06-20.41L148.06-20.41 147.06-21.56Q149.18-23.24 152.1-24.34 155.01-25.44 157.55-25.44L157.55-25.44Q158.68-25.44 159.69-25.23 160.7-25.02 161.74-24.48 162.78-23.93 163.52-23.08 164.27-22.24 164.73-20.84 165.19-19.43 165.19-17.65L165.19-17.65ZM153.84-0.85L153.84-0.85Q155.97-0.85 158.29-2.26 160.61-3.66 161.7-5.76L161.7-5.76 161.7-13.21Q155.45-12.3 152.78-10.44 150.11-8.57 150.11-5L150.11-5Q150.11-2.83 151.03-1.84 151.96-0.85 153.84-0.85ZM176.33-2.44L176.33-18.09Q176.33-19.73 176.17-20.83 176.01-21.92 175.61-22.58 175.2-23.24 174.49-23.51 173.79-23.78 172.99-23.78 172.2-23.78 172.03-23.75L172.03-23.75 171.93-24.19Q175.91-25.39 179.33-25.39L179.33-25.39Q179.84-24.1 179.84-22.61L179.84-22.61 179.84-21.9Q181.26-22.85 182.45-23.56 183.65-24.27 184.81-24.76 185.97-25.24 187.19-25.49 188.41-25.73 189.88-25.73L189.88-25.73Q191.19-25.73 192.5-25.39 193.81-25.05 194.84-24.17 195.88-23.29 196.53-21.78 197.17-20.26 197.17-17.94L197.17-17.94 197.17-2.76Q197.17-2.17 197.46-1.78 197.74-1.39 198.19-1.12 198.64-0.85 199.23-0.67 199.81-0.49 200.45-0.29L200.45-0.29 200.23 0.29Q198.86 0 196.59 0L196.59 0Q195.2 0 193.34 0.39L193.34 0.39 193.2 0.15Q193.68-0.56 193.68-2.44L193.68-2.44 193.68-17.04Q193.68-19.09 193.29-20.4 192.9-21.7 192.23-22.45 191.56-23.19 190.67-23.49 189.78-23.78 188.78-23.78L188.78-23.78Q187.56-23.78 186.49-23.56 185.43-23.34 184.37-22.89 183.31-22.44 182.21-21.77 181.11-21.09 179.84-20.19L179.84-20.19 179.84-3.34Q179.84-2.56 179.96-2.09 180.09-1.61 180.48-1.29 180.87-0.98 181.57-0.73 182.28-0.49 183.43-0.2L183.43-0.2 183.23 0.39Q181.82 0.2 180.83 0.1 179.84 0 179.23 0L179.23 0Q177.84 0 175.98 0.39L175.98 0.39 175.84 0.15Q176.33-0.56 176.33-2.44L176.33-2.44ZM246.54-3.1L246.54-3.1 246.54-7.1Q246.54-10.55 245.71-11.73 244.87-12.92 242.21-12.74L242.21-12.74 242.12-13.21Q246.14-14.4 249.78-14.4L249.78-14.4Q250.27-13.06 250.27-11.6L250.27-11.6 250.27-4.59Q250.27-2.29 250.73-1.66L250.73-1.66 250.59-1.39Q248.66-1.39 246.41-0.79 244.17-0.2 241.6 0.4 239.04 1 236.38 1L236.38 1Q232.69 1 229.52-0.35 226.34-1.71 224.06-4.13 221.78-6.54 220.47-10.08 219.17-13.62 219.17-17.8L219.17-17.8Q219.17-21.63 220.2-24.77 221.24-27.91 223.04-30.05 224.83-32.2 227.35-33.68 229.86-35.16 232.75-35.83 235.65-36.5 238.92-36.5L238.92-36.5Q244.51-36.5 249.42-34.2L249.42-34.2Q248.56-31.15 246.97-27.76L246.97-27.76 246.32-28Q246.71-30.91 246.49-32.79L246.49-32.79Q245.41-33.4 244.36-33.8 243.31-34.2 242.14-34.44 240.97-34.67 239.61-34.75 238.26-34.84 236.57-34.84L236.57-34.84Q234.33-34.84 232.39-34.27 230.45-33.69 228.76-32.37 227.08-31.05 225.88-29.06 224.68-27.08 224-24.11 223.32-21.14 223.32-17.41L223.32-17.41Q223.32-13.82 224.54-10.64 225.76-7.47 227.77-5.3 229.79-3.13 232.42-1.87 235.06-0.61 237.87-0.61L237.87-0.61Q240.65-0.61 242.54-1.11 244.44-1.61 246.54-3.1ZM262.67-36.21L262.67-4.39Q262.67-2.47 263.57-1.54 264.48-0.61 266.77-0.2L266.77-0.2 266.58 0.39Q263.77 0 262.24 0 260.72 0 258.81 0.39L258.81 0.39 258.67 0.15Q259.15-0.56 259.15-2.44L259.15-2.44 259.15-31.69Q259.15-35.16 258.34-36.34 257.52-37.52 254.86-37.35L254.86-37.35 254.76-37.79Q258.79-38.99 262.16-38.99L262.16-38.99Q262.67-37.72 262.67-36.21L262.67-36.21ZM283.15-25.39L283.15-25.39Q288.77-25.39 291.96-21.95 295.16-18.51 295.16-12.35L295.16-12.35Q295.16-8.79 293.53-5.71 291.89-2.64 289.08-0.82 286.28 1 283 1L283 1Q277.37 1 274.18-2.4 270.99-5.81 270.99-12.06L270.99-12.06Q270.99-15.77 272.63-18.84 274.26-21.9 277.06-23.65 279.86-25.39 283.15-25.39ZM282.66-23.71L282.66-23.71Q280.73-23.71 279.32-23.14 277.9-22.58 277.05-21.63 276.19-20.68 275.68-19.21 275.17-17.75 274.98-16.21 274.8-14.67 274.8-12.65L274.8-12.65Q274.8-9.42 275.57-7.02 276.34-4.61 277.63-3.28 278.93-1.95 280.39-1.33 281.86-0.71 283.49-0.71L283.49-0.71Q285.4-0.71 286.83-1.31 288.25-1.9 289.11-2.87 289.96-3.83 290.48-5.31 290.99-6.79 291.17-8.3 291.35-9.81 291.35-11.74L291.35-11.74Q291.35-14.45 290.84-16.58 290.33-18.7 289.49-20.02 288.64-21.34 287.48-22.19 286.33-23.05 285.15-23.38 283.98-23.71 282.66-23.71ZM306.81-36.21L306.81-21.19Q308.95-23.39 311.13-24.39 313.3-25.39 315.91-25.39L315.91-25.39Q318.11-25.39 319.95-24.38 321.8-23.36 322.99-21.7 324.19-20.04 324.85-17.96 325.51-15.87 325.51-13.65L325.51-13.65Q325.51-7.1 322.05-3.31 318.6 0.49 312.05 0.49L312.05 0.49Q309.44 0.49 306.95 0.05L306.95 0.05 306.9 0.05Q304.49 0.05 303 0.56L303 0.56 302.8 0.15Q303.12-0.32 303.2-0.89 303.29-1.46 303.29-2.95L303.29-2.95 303.29-31.69Q303.29-34.91 302.59-36.13 301.9-37.35 299.7-37.35L299.7-37.35 298.99-37.35 298.9-37.79Q302.92-38.99 306.29-38.99L306.29-38.99Q306.81-37.72 306.81-36.21L306.81-36.21ZM306.81-19.24L306.81-19.24 306.81-2.81Q307.98-2.17 309.92-1.76 311.86-1.34 313.81-1.34L313.81-1.34Q315.72-1.34 317.12-1.87 318.52-2.39 319.38-3.28 320.23-4.17 320.76-5.62 321.28-7.06 321.47-8.64 321.65-10.23 321.65-12.35L321.65-12.35Q321.65-17.92 319.77-20.79 317.89-23.66 314.79-23.66L314.79-23.66Q312.86-23.66 310.77-22.52 308.69-21.39 306.81-19.24ZM348.99-17.65L348.99-2.76Q348.99-2.34 349.17-1.99 349.36-1.64 349.61-1.4 349.87-1.17 350.36-0.95 350.85-0.73 351.21-0.61 351.58-0.49 352.24-0.29L352.24-0.29 352.04 0.29Q350.48 0 348.94 0L348.94 0Q347.01 0 345.13 0.39L345.13 0.39 344.99 0.15Q345.5-0.56 345.5-2.44L345.5-2.44 345.5-4.05Q344.28-1.78 341.7-0.39 339.13 1 336.49 1L336.49 1Q333.68 1 331.96-0.45 330.24-1.9 330.24-4.76L330.24-4.76Q330.24-6.62 331.01-8.07 331.78-9.52 333.06-10.53 334.34-11.55 336.36-12.33 338.37-13.11 340.51-13.6 342.64-14.09 345.5-14.5L345.5-14.5 345.5-16.75Q345.5-23.46 340.2-23.46L340.2-23.46Q338.49-23.46 336.01-22.62 333.54-21.78 331.85-20.41L331.85-20.41 330.85-21.56Q332.98-23.24 335.89-24.34 338.81-25.44 341.35-25.44L341.35-25.44Q342.47-25.44 343.49-25.23 344.5-25.02 345.54-24.48 346.57-23.93 347.32-23.08 348.06-22.24 348.53-20.84 348.99-19.43 348.99-17.65L348.99-17.65ZM337.64-0.85L337.64-0.85Q339.76-0.85 342.08-2.26 344.4-3.66 345.5-5.76L345.5-5.76 345.5-13.21Q339.25-12.3 336.58-10.44 333.9-8.57 333.9-5L333.9-5Q333.9-2.83 334.83-1.84 335.76-0.85 337.64-0.85ZM363.64-36.21L363.64-4.39Q363.64-2.47 364.54-1.54 365.44-0.61 367.74-0.2L367.74-0.2 367.54 0.39Q364.74 0 363.21 0 361.68 0 359.78 0.39L359.78 0.39 359.63 0.15Q360.12-0.56 360.12-2.44L360.12-2.44 360.12-31.69Q360.12-35.16 359.3-36.34 358.49-37.52 355.82-37.35L355.82-37.35 355.73-37.79Q359.76-38.99 363.12-38.99L363.12-38.99Q363.64-37.72 363.64-36.21L363.64-36.21Z" opacity="1" transform="matrix(1,0,0,1,0,0)" fill="#2f8340" class="wordmark-text-0" data-fill-palette-color="primary" id="text-0"></path></svg></g></svg></g></svg></g></svg></g><g transform="matrix(1,0,0,1,409.1185818337132,0)"><svg viewBox="0 0 79.60673721255749 79.60673721255749" height="79.60673721255749" width="79.60673721255749"><g><svg xmlns="http://www.w3.org/2000/svg" xmlns:xlink="http://www.w3.org/1999/xlink" version="1.1" x="0" y="0" viewBox="16.4 16.4 67.19999999999999 67.19999999999999" enable-background="new 0 0 100 100" xml:space="preserve" height="79.60673721255749" width="79.60673721255749" class="icon-icon-0" data-fill-palette-color="accent" id="icon-0"><g fill="#50a060" data-fill-palette-color="accent"><path d="M50 16.4L16.4 50 50 83.6 83.6 50 50 16.4zM31.1 56.1c1.1-0.8 3.1-0.5 5.4 0.7 0.5 0.3 1.5 1.3 2.5 2.2 0.2 0.2 0.3 0.3 0.5 0.5l-5.4 5.4-4.3-4.3C29.7 58.4 30.1 56.8 31.1 56.1zM40.3 60.2c2 1.9 4.2 3.6 6 3.6 0.2 0 0.4 0 0.5-0.1 0.6-0.1 1.4-0.5 1.9-1.7 0.8-2-0.4-4.7-2.5-7.8l3.8-3.8 11.7 11.7c-1.3 1.6-2.9 3-4.6 4.3-3.7 3.1-7.6 6.2-8.3 13.1l-14-14L40.3 60.2zM41.7 58.8l3-3c2.2 3.2 2.4 4.8 2.1 5.5-0.2 0.5-0.4 0.5-0.5 0.5C45.4 62 43.3 60.3 41.7 58.8zM41.1 28.1c2-1 3.4 0.5 5.6 3.1 1.6 1.9 3.2 3.9 5.5 4.3 0.3 0 0.6 0.1 0.9 0.1 1.8 0 3.6-0.7 5.1-2 1.1-1 2-2.3 2.4-3.7l4.3 4.3L54.5 44.5c-0.9 0-1.7 0-2.5 0-1.2 0-1.3-0.3-1.7-1.6-0.3-0.8-0.7-1.9-1.6-2.9-1.1-1.1-1.9-2.7-2.7-4.4-1.2-2.6-2.6-5.5-5.4-6.9L41.1 28.1zM44.2 36.5c0.9 1.8 1.7 3.6 3 4.9 0.6 0.7 0.9 1.5 1.2 2.2 0.5 1.3 1.1 2.9 3.6 2.9 0.2 0 0.4 0 0.5 0L50 49 35.1 34.1l3.9-3.9C41.6 31.2 42.9 33.8 44.2 36.5zM53.9 46.5c4.3 0.1 7.8 0.5 9.7 2.6 1.1 1.3 1.5 3.2 1.2 5.8-0.4 2.7-1.2 4.8-2.5 6.5L50.7 49.8 53.9 46.5zM49.3 49.8l-3.7 3.7c-1.4-1.9-3-3.8-4.7-5.7-0.2-0.3-0.4-0.5-0.6-0.6-1.7-2.2-3.5-2-4.9-1.8-1 0.1-1.6 0.1-2.2-0.4-0.2-1.6-1.2-5.4-1.8-7.1l3-3L49.3 49.8zM58.4 68c1.7-1.4 3.3-2.7 4.8-4.4l2 2L50.8 80C51.4 73.7 54.8 70.9 58.4 68zM63.7 62.8c1.5-2 2.6-4.4 3-7.7 0.4-3.2-0.1-5.6-1.6-7.4-2.1-2.4-5.7-3-9.2-3.2l9.7-9.7L80.8 50 65.9 64.9 63.7 62.8zM58.9 28.1c-0.1 1.4-0.8 2.8-2 3.9-1.2 1.1-2.8 1.6-4.3 1.4-1.5-0.3-2.9-1.9-4.3-3.6-1.4-1.6-2.9-3.5-4.9-4l6.7-6.7L58.9 28.1zM29.8 39.4c0.6 1.9 1.4 5.2 1.4 5.9v0.4l0.2 0.3c1.3 1.5 2.9 1.4 4.1 1.3 1.2-0.1 2.1-0.2 3.2 1.1 0.2 0.2 0.4 0.4 0.6 0.7 2.1 2.3 3.6 4.2 4.8 5.8L41 58.1c-0.2-0.2-0.4-0.4-0.5-0.5-1.2-1.2-2.2-2.1-3-2.5-3.1-1.6-5.8-1.8-7.5-0.6-0.9 0.6-1.9 1.8-2.1 4.2L19.2 50 29.8 39.4z" fill="#50a060" data-fill-palette-color="accent"></path></g></svg></g></svg></g></svg></g></svg></g></svg></g><defs></defs></svg><rect width="395.52" height="64.42485272454189" fill="none" stroke="none" visibility="hidden"></rect></g></svg></g></svg>