<?xml version="1.0" encoding="UTF-8" standalone="no"?>
<!-- Created with Inkscape (http://www.inkscape.org/) -->
<svg
   xmlns:dc="http://purl.org/dc/elements/1.1/"
   xmlns:cc="http://web.resource.org/cc/"
   xmlns:rdf="http://www.w3.org/1999/02/22-rdf-syntax-ns#"
   xmlns:svg="http://www.w3.org/2000/svg"
   xmlns="http://www.w3.org/2000/svg"
   xmlns:sodipodi="http://sodipodi.sourceforge.net/DTD/sodipodi-0.dtd"
   xmlns:inkscape="http://www.inkscape.org/namespaces/inkscape"
   id="svg2"
   sodipodi:version="0.32"
   inkscape:version="0.45.1"
   width="1024"
   height="768"
   version="1.0"
   sodipodi:docbase="D:\Chris\Daten\Graphik\svg\Wikipedia"
   sodipodi:docname="VeveOgoun.svg"
   inkscape:output_extension="org.inkscape.output.svg.inkscape">
  <metadata
     id="metadata7">
    <rdf:RDF>
      <cc:Work
         rdf:about="">
        <dc:format>image/svg+xml</dc:format>
        <dc:type
           rdf:resource="http://purl.org/dc/dcmitype/StillImage" />
      </cc:Work>
    </rdf:RDF>
  </metadata>
  <defs
     id="defs5" />
  <sodipodi:namedview
     inkscape:window-height="579"
     inkscape:window-width="801"
     inkscape:pageshadow="2"
     inkscape:pageopacity="0.0"
     guidetolerance="10.0"
     gridtolerance="10.0"
     objecttolerance="10.0"
     borderopacity="1.0"
     bordercolor="#666666"
     pagecolor="#ffffff"
     id="base"
     inkscape:zoom="0.4921875"
     inkscape:cx="512"
     inkscape:cy="384"
     inkscape:window-x="110"
     inkscape:window-y="110"
     inkscape:current-layer="svg2" />
  <path
     style="fill:#000000"
     d="M 512.05713,721.24023 C 511.09025,709.64656 511.08285,709.64021 505.14387,715.30479 C 499.45051,720.73511 498.03124,721.19712 496.40095,718.15089 C 495.43164,716.33972 495.92722,715.51645 500.46421,711.40089 C 508.77325,703.86366 508.70926,703.50994 499.12202,703.98111 C 492.96191,704.28384 490.44864,704.01782 488.97228,702.90677 C 487.2396,701.60283 487.17839,701.2272 488.4491,699.69608 C 489.67864,698.21458 491.16562,698.03493 498.66136,698.46232 C 503.4866,698.73744 507.43453,698.65186 507.43453,698.27214 C 507.43453,697.89243 504.96976,694.91142 501.95727,691.64769 C 496.73526,685.99018 495.01323,682.21364 497.65553,682.21364 C 498.32708,682.21364 501.47708,684.78705 504.65553,687.93234 L 510.43453,693.65103 L 510.4277,684.68234 L 510.42086,675.71364 L 507.1777,673.58546 C 501.69479,669.98755 491.40777,664.2293 487.68201,662.67258 L 484.14322,661.19398 L 480.53887,665.43787 C 467.45665,680.8414 451.21566,691.13151 428.43453,698.45062 C 419.45064,701.33696 415.24079,701.71718 392.43453,701.70197 C 378.8278,701.6929 373.42642,701.29158 368.15566,699.89806 C 358.47023,697.33735 348.84733,693.18865 342.05621,688.64584 C 326.83735,678.46544 328.38708,679.77305 318.43339,668.71364 C 310.21226,659.57924 308.88227,656.44924 308.56619,645.4921 C 308.21601,633.35309 310.34769,627.85843 318.77162,619.18635 C 324.26188,613.53435 326.03891,612.36723 332.02333,610.48285 C 335.82449,609.28594 342.24071,608.08325 346.28159,607.81019 C 352.93112,607.36086 353.99393,607.55545 357.476,609.85978 C 359.59204,611.26011 363.03433,614.89011 365.12554,617.92646 C 368.61091,622.98705 368.92802,624.01243 368.93114,630.23164 C 368.93415,636.24903 368.64332,637.28179 366.35919,639.36492 C 361.48796,643.80749 346.43453,650.0845 346.43453,647.67315 C 346.43453,645.84507 351.14475,641.21364 353.00393,641.21364 C 356.02239,641.21364 361.43694,635.46537 361.42476,632.2738 C 361.41005,628.41731 357.06168,619.85424 353.80982,617.27801 C 351.31181,615.299 350.14724,615.07128 344.93453,615.54259 C 331.07764,616.79546 327.3572,619.49602 320.86157,633.01639 C 314.67927,645.88458 314.57957,649.47698 320.14494,658.83722 C 328.45861,672.81975 335.89111,678.71479 359.93144,690.3936 L 370.88252,695.71364 L 389.90852,695.49005 C 405.52458,695.30654 410.27872,694.89772 416.43453,693.20901 C 420.55953,692.07741 425.43005,690.75547 427.25791,690.27136 C 429.08576,689.78725 434.26076,687.60076 438.75791,685.41249 C 443.25505,683.22422 450.30953,679.8198 454.43453,677.84713 C 461.21417,674.60493 478.14578,661.2052 478.35976,658.91261 C 478.40089,658.47205 476.74703,657.40772 474.68453,656.54743 C 472.62203,655.68715 464.18453,651.72219 455.93453,647.73643 C 435.35682,637.79485 437.11682,638.03499 433.37858,644.65879 C 429.99738,650.64993 428.85987,651.18839 425.43802,648.41755 L 423.21995,646.62146 L 426.32724,641.72177 C 428.03625,639.02694 429.43453,636.51081 429.43453,636.13038 C 429.43453,635.74994 426.48326,634.18437 422.87615,632.65133 C 415.90899,629.69025 414.19093,627.86116 415.1025,624.37531 C 415.89359,621.35018 418.22537,621.65995 425.91158,625.81125 C 429.57516,627.78994 432.71243,629.25244 432.88328,629.06125 C 433.05414,628.87007 434.38064,626.35114 435.83108,623.46364 C 437.94382,619.25761 438.95973,618.21364 440.93994,618.21364 C 442.29939,618.21364 444.25481,618.93556 445.28531,619.8179 C 447.09872,621.37059 447.05086,621.58279 443.79674,626.41839 C 439.84413,632.29195 439.63878,633.83411 442.68453,634.77093 C 445.03196,635.49295 462.3927,643.96154 477.0472,651.53306 C 482.83878,654.52539 482.19492,654.83701 488.03819,646.21364 C 496.62623,633.53958 502.16417,622.29285 507.73437,606.21364 C 510.3773,598.58441 510.75344,596.43199 510.53034,590.21364 L 510.40478,586.71364 L 506.95223,590.71364 C 505.05333,592.91364 503.23003,595.50009 502.90046,596.46132 C 502.11877,598.74114 497.50318,599.94276 496.3978,598.15421 C 495.50275,596.70599 497.07071,594.19547 502.87583,587.78199 C 504.83311,585.61958 506.43453,583.48208 506.43453,583.03199 C 506.43453,582.5819 502.37041,582.21364 497.40315,582.21364 C 490.10044,582.21364 488.25589,581.91169 487.7664,580.6361 C 486.475,577.27075 490.02099,575.70824 498.73658,575.8022 L 506.95164,575.89075 L 501.19309,570.1322 C 498.02588,566.96499 495.43453,563.64852 495.43453,562.76226 C 495.43453,559.16667 498.54591,560.1423 504.91675,565.73559 L 511.43453,571.45788 L 511.43453,528.83576 C 511.43453,505.39359 511.25269,486.21364 511.03044,486.21364 C 510.14596,486.21364 456.03018,512.53614 453.43453,514.22891 C 452.60953,514.76694 448.55953,516.73481 444.43453,518.60195 C 436.85113,522.0345 415.45727,532.5428 409.93453,535.54777 L 406.93453,537.18009 L 406.43453,552.78372 C 406.15953,561.36571 406.12047,568.5717 406.34774,568.79704 C 406.57501,569.02237 409.39188,566.69724 412.60747,563.63009 C 415.82305,560.56294 419.01211,558.23929 419.69426,558.46642 C 422.36332,559.3551 421.30799,562.22466 416.0666,568.3304 C 412.39679,572.60539 410.98391,574.94209 411.76744,575.44055 C 412.40934,575.84891 416.82389,576.18991 421.57754,576.19833 C 428.7139,576.21097 430.33208,576.50427 430.86032,577.88086 C 431.9456,580.70904 429.91951,581.46696 419.86848,581.9927 L 410.17443,582.49976 L 416.87116,588.90666 C 420.55436,592.43046 423.39068,595.85358 423.17409,596.5136 C 422.9575,597.17362 421.63929,597.85007 420.24473,598.01681 C 418.21529,598.25947 416.45654,596.96198 411.43393,591.51681 L 405.15869,584.71364 L 405.81898,592.25026 C 406.53055,600.37227 405.26983,606.21364 402.80532,606.21364 C 402.01686,606.21364 401.17578,605.65114 400.93625,604.96364 C 400.48549,603.6699 399.61523,593.89139 399.50013,588.8271 C 399.43634,586.02032 399.27405,586.11504 393.62687,592.25499 C 387.71222,598.68575 385.43453,599.3763 385.43453,594.73876 C 385.43453,593.33104 387.23096,590.45295 389.89538,587.59196 C 392.34885,584.95749 394.26135,582.71602 394.14538,582.61093 C 394.02941,582.50584 390.78453,582.19483 386.93453,581.91981 C 383.08453,581.64478 379.1276,581.09278 378.14136,580.69314 C 376.45184,580.00853 376.44634,579.85807 378.04635,578.09008 C 379.43233,576.55859 381.18668,576.21364 387.58952,576.21364 C 395.39092,576.21364 397.26387,575.26304 393.46656,573.23078 C 391.3873,572.118 384.43453,563.52641 384.43453,562.06984 C 384.43453,561.59893 385.84466,561.21364 387.56815,561.21364 C 390.00296,561.21364 391.79247,562.32169 395.59277,566.1824 L 400.48377,571.15117 L 400.20915,555.01712 L 399.93453,538.88307 L 396.93453,537.21626 C 383.86922,529.95712 327.61401,502.6764 311.93453,495.99588 C 308.08453,494.35552 304.50703,492.60846 303.98453,492.11353 C 300.85368,489.14783 300.67518,491.15766 300.54876,530.79941 C 300.47932,552.57158 300.70444,570.84134 301.04901,571.39887 C 301.39358,571.95641 304.28468,569.83062 307.47368,566.6749 C 311.36408,562.8251 313.79215,561.1369 314.85319,561.54405 C 317.81821,562.68184 316.44131,566.03628 310.71393,571.62827 C 304.37974,577.81273 304.03424,577.45289 316.08692,577.22436 C 324.14508,577.07158 326.1728,578.38765 322.48286,581.37559 C 320.77479,582.7587 318.52239,583.21364 313.38276,583.21364 C 309.62615,583.21364 306.31339,583.60064 306.02106,584.07363 C 305.72873,584.54663 307.95218,587.6549 310.96204,590.98091 C 313.97191,594.30693 316.43453,597.5041 316.43453,598.08574 C 316.43453,598.66738 315.59488,599.59264 314.56863,600.14187 C 313.01434,600.9737 311.84534,600.24211 307.56863,595.76107 C 304.74488,592.8024 302.43453,589.89387 302.43453,589.29766 C 302.43453,588.70145 302.00598,588.21364 301.4822,588.21364 C 300.95842,588.21364 300.53954,591.2738 300.55136,595.01399 C 300.57745,603.27039 299.68859,607.21364 297.80137,607.21364 C 295.41323,607.21364 294.20395,602.14782 294.75777,594.46364 C 295.04516,590.47614 295.1486,587.21364 294.98763,587.21364 C 294.82666,587.21364 292.07104,590.36364 288.86403,594.21364 C 283.2805,600.91664 281.52312,601.95234 278.01632,600.60665 C 275.1017,599.48821 276.38858,596.99231 283.18453,590.5829 L 289.93453,584.21682 L 285.93453,584.12249 C 283.73453,584.07061 280.13453,584.09392 277.93453,584.17429 C 275.73453,584.25466 273.05152,583.67009 271.97228,582.87524 C 270.30298,581.64582 270.20929,581.18997 271.34472,579.82185 C 272.38971,578.56272 274.62858,578.21364 281.65919,578.21364 L 290.63896,578.21364 L 285.8858,573.96364 C 281.05305,569.64248 278.24502,564.87107 279.14874,562.51601 C 280.14252,559.92626 282.99734,561.32922 289.15762,567.43475 L 295.43453,573.65586 L 295.43453,531.54174 C 295.43453,494.91443 295.2379,489.35216 293.92525,488.84845 C 293.09515,488.52991 292.53265,487.69543 292.67525,486.99403 C 292.97864,485.50183 289.79793,483.83871 243.14069,461.0936 C 209.39986,444.64515 195.34406,438.21364 193.13749,438.21364 C 192.07701,438.21364 192.56475,469.46445 194.41913,520.33033 L 195.35302,545.94703 L 192.89378,552.72713 C 191.54119,556.45619 190.43453,559.65116 190.43453,559.82706 C 190.43453,560.00296 188.35723,562.48581 185.8183,565.34451 C 182.74192,568.80835 178.82245,571.73824 174.0683,574.12789 C 167.22249,577.5689 166.51069,577.71271 156.43453,577.6907 C 142.99803,577.66135 138.4084,575.80077 132.69723,568.06789 C 126.71718,559.97095 125.17602,556.34856 124.67901,549.22161 C 124.21401,542.5537 126.16834,532.56285 129.01417,527.05963 C 138.08959,509.5097 168.49557,512.85629 174.06609,532.0182 C 175.88736,538.28316 175.40955,540.84438 171.22783,547.23202 C 166.31243,554.74038 162.22462,556.39381 154.13251,554.1467 C 149.60845,552.8904 146.25506,548.20686 146.6625,543.71364 C 147.04129,539.53633 150.36832,539.16199 152.5575,543.05038 C 155.60971,548.47162 163.97675,547.93336 166.98169,542.12245 C 170.8075,534.72414 166.92614,526.66372 157.91414,523.2919 C 154.85909,522.14886 151.80753,521.21364 151.1329,521.21364 C 148.85367,521.21364 139.19283,525.1224 137.34992,526.79021 C 134.81922,529.08046 131.36626,539.95706 131.13034,546.38148 C 130.95442,551.17206 131.36677,552.34371 135.19013,557.91702 C 137.53072,561.32888 141.09569,565.37888 143.11229,566.91702 C 146.27602,569.33011 147.68092,569.71138 153.35669,569.69719 C 156.9745,569.68815 162.07655,569.0659 164.69458,568.31442 C 169.99907,566.79181 177.3778,560.85506 180.87352,555.29722 C 185.95785,547.21366 185.78876,552.08364 185.4421,423.71364 C 185.26387,357.71364 185.06591,281.66364 185.00219,254.71364 C 184.89013,207.32342 184.81792,205.56409 182.8042,201.16154 C 180.50028,196.12455 174.30458,190.64785 168.6091,188.61376 C 160.81902,185.83161 149.95481,187.74616 140.52054,193.56367 C 135.7847,196.48397 134.68039,197.74677 133.2647,201.86092 C 132.27584,204.73466 131.56218,210.06386 131.5147,214.92884 C 131.43906,222.6799 131.60361,223.33662 134.42725,226.55257 C 141.33728,234.42266 153.41773,236.26929 161.4732,230.68684 C 167.6742,226.38955 169.93453,222.61806 169.93453,216.56863 C 169.93453,208.2365 164.5346,204.47368 157.05953,207.59697 C 154.00561,208.87297 153.3816,209.69242 152.82813,213.15367 C 152.33376,216.24529 151.72647,217.21364 150.28197,217.21364 C 148.1201,217.21364 146.07812,212.91196 146.94438,210.18261 C 148.75023,204.49287 159.28888,199.92141 165.55997,202.10753 C 170.40052,203.79495 175.75304,210.44307 176.5145,215.71364 C 177.2713,220.95199 172.82198,231.31934 167.21976,237.37133 C 161.54188,243.50505 153.34832,244.49489 141.04324,240.53365 C 135.06821,238.61017 130.84619,234.42592 127.01158,226.62749 C 124.59245,221.70771 124.097,219.43405 124.0641,213.10118 C 124.02984,206.50649 124.45395,204.61648 127.23632,198.9647 C 130.85834,191.60732 134.24482,188.60121 144.11355,183.98307 C 153.57155,179.55714 163.67385,178.99694 171.48814,182.46507 C 182.44038,187.32589 187.74681,194.22327 191.54662,208.53737 C 192.74038,213.03432 194.15861,217.27614 194.69825,217.96364 C 195.34083,218.78227 195.33599,219.64501 194.68423,220.46364 C 192.92958,222.66755 191.43453,253.7803 191.43453,288.09164 L 191.43453,321.43046 L 193.68453,320.8587 C 194.92203,320.54423 201.10953,317.53128 207.43453,314.16324 C 213.75953,310.7952 230.63453,302.15074 244.93453,294.95333 C 259.23453,287.75591 276.22203,278.94592 282.68453,275.37556 L 294.43453,268.88401 L 294.43453,242.04883 C 294.43453,227.28947 294.08294,215.21364 293.65323,215.21364 C 293.22351,215.21364 290.2001,217.91364 286.93453,221.21364 C 283.12979,225.0585 280.17772,227.21364 278.71583,227.21364 C 274.63798,227.21364 276.13403,223.63698 282.97536,217.03021 L 289.51619,210.71364 L 280.38317,210.12349 C 270.90216,209.51085 268.71988,208.4175 270.46599,205.15486 C 271.23318,203.72135 272.6916,203.55809 280.89621,203.98724 C 286.14229,204.26164 290.43453,204.28969 290.43453,204.04958 C 290.43453,203.80946 287.95953,201.0577 284.93453,197.93456 C 281.22367,194.1033 279.43453,191.43597 279.43453,189.73488 C 279.43453,184.51485 284.22863,187.29592 292.32668,197.21364 L 294.36799,199.71364 L 294.51642,192.71364 C 294.59805,188.86364 294.5964,184.99503 294.51276,184.11673 C 294.32519,182.1471 296.96946,179.80818 298.39073,180.68657 C 298.98588,181.05439 299.45981,185.28218 299.49334,190.52266 C 299.54155,198.05756 299.76678,199.36754 300.74334,197.79284 C 303.13292,193.93964 308.64116,188.28283 310.61298,187.657 C 311.72556,187.30388 313.08526,187.46437 313.63453,188.01364 C 315.2763,189.65541 313.46609,193.29999 308.29115,198.77173 L 303.40781,203.93514 L 308.81493,204.57064 C 311.78884,204.92016 315.51769,204.94701 317.10127,204.63029 C 319.26566,204.19741 320.46803,204.59318 321.94423,206.22436 C 323.88167,208.3652 323.88215,208.41317 321.98013,209.80396 C 320.73819,210.71209 317.45485,211.21364 312.75189,211.21364 L 305.45152,211.21364 L 309.93667,217.11123 C 315.13189,223.94249 316.0642,227.54462 312.76011,228.02005 C 311.12256,228.25568 309.40017,226.85141 305.78419,222.33254 C 303.14337,219.03232 300.79909,216.51574 300.57469,216.74014 C 299.72383,217.59101 299.4749,223.35281 299.40841,243.73622 C 299.35632,259.70536 299.67894,265.5653 300.75054,268.11389 C 302.06208,271.23312 304.78952,272.75024 339.54789,289.69467 C 360.11054,299.7188 382.19182,310.4157 388.6174,313.46557 L 400.30027,319.01079 L 399.8674,288.7587 C 399.62932,272.12004 399.42244,248.42819 399.40767,236.11012 L 399.38081,213.71364 L 393.15767,220.45818 C 388.75808,225.22639 386.34848,227.10455 384.93453,226.86767 C 381.19207,226.24069 382.16343,222.91873 387.9047,216.70991 L 393.44943,210.71364 L 385.98824,210.21364 C 377.84881,209.66819 375.2611,208.27993 377.08299,205.43612 C 378.0115,203.98679 379.63675,203.74405 387.33163,203.90543 L 396.47676,204.09722 L 390.32715,196.66272 C 385.18337,190.4442 384.38215,188.98168 385.42848,187.72093 C 387.89437,184.74971 390.80053,186.16802 393.70984,191.76254 C 394.5539,193.38564 396.36531,195.76047 397.73518,197.03994 L 400.22587,199.36624 L 400.91604,194.34808 C 401.29563,191.5881 401.33526,188.47624 401.0041,187.43284 C 400.37998,185.4664 402.90081,178.20199 404.19795,178.22895 C 407.18357,178.29102 407.63654,180.12112 406.9303,189.26837 L 406.21194,198.57272 L 412.47078,193.34297 C 418.4619,188.33691 422.24272,187.08596 423.13935,189.81309 C 423.33816,190.41778 420.46364,193.90528 416.75151,197.56309 L 410.00219,204.21364 L 417.7841,204.21364 C 426.3347,204.21364 429.43453,205.27765 429.43453,208.21261 C 429.43453,209.96202 428.55168,210.16781 419.93254,210.42743 L 410.43056,210.71364 L 416.36946,217.14726 C 421.21731,222.39894 422.12977,223.91456 421.33626,225.39726 C 420.80161,226.39627 420.17617,227.21364 419.9464,227.21364 C 418.02865,227.21364 414.36958,224.29832 411.59482,220.55963 C 409.75798,218.08468 408.0712,216.24364 407.84641,216.46842 C 407.62163,216.69321 407.22183,231.91534 406.95798,250.29538 C 406.69413,268.67542 406.21477,291.81364 405.89273,301.71364 C 405.43556,315.76779 405.59518,320.08422 406.62087,321.40412 C 407.81576,322.94176 412.65866,320.75506 460.18453,297.21874 L 512.43453,271.34287 L 512.43453,221.99171 L 512.43453,172.64055 L 507.32147,168.67709 C 504.50929,166.49719 500.29828,163.36364 497.96367,161.71364 C 495.62907,160.06364 488.81744,155.24922 482.82673,151.01494 C 476.83602,146.78065 470.62704,142.16815 469.02899,140.76494 C 467.43094,139.36172 465.47541,138.21364 464.68336,138.21364 C 462.60936,138.21364 457.62231,134.58383 452.43453,129.29837 L 447.93453,124.71364 L 447.68268,132.71364 C 447.34523,143.43255 446.86028,145.21364 444.27922,145.21364 C 442.23665,145.21364 442.17953,144.87874 442.65893,135.71364 C 442.95079,130.1337 442.77007,126.21364 442.22095,126.21364 C 441.70676,126.21364 438.69128,128.68864 435.51988,131.71364 C 429.8657,137.10681 427.22949,138.30893 425.87231,136.11297 C 425.23577,135.08303 438.01107,122.23259 439.68453,122.2195 C 440.09703,122.21628 440.43453,121.83019 440.43453,121.36153 C 440.43453,120.89287 435.70953,120.68332 429.93453,120.89585 C 419.9579,121.26301 419.43453,121.18215 419.43453,119.27364 C 419.43453,116.04336 424.02973,114.28992 429.93453,115.26703 C 439.22515,116.80442 439.21928,116.81947 432.42564,108.88267 C 427.46942,103.09247 426.06583,99.213641 428.92682,99.213641 C 429.74757,99.213641 431.66007,100.66177 433.17682,102.4317 C 437.83132,107.86318 441.24088,111.21389 442.10761,111.20836 C 442.56241,111.20546 443.01019,107.58346 443.10265,103.15948 C 443.27522,94.903291 444.44337,91.896071 447.08425,92.909471 C 449.68137,93.906081 450.32955,97.535751 448.96141,103.42126 C 447.02577,111.74812 448.25386,112.24525 454.81312,105.78999 C 458.31263,102.34597 461.34141,100.21364 462.73383,100.21364 C 465.47564,100.21364 471.944,95.527631 488.62274,81.458367 C 496.7908,74.568241 500.88765,70.489428 500.12274,70.00899 C 499.46922,69.598521 496.60381,69.485099 493.75515,69.756943 C 488.46845,70.261445 487.29373,69.64505 486.73661,66.074221 C 486.39679,63.896147 489.18407,63.244758 498.93453,63.22356 L 506.93453,63.206167 L 503.93453,61.336615 C 496.92381,56.967648 492.84446,50.13499 496.18072,48.349475 C 497.70827,47.53196 499.21146,48.503971 504.97878,54.038572 L 511.93453,60.713643 L 512.22308,50.769654 C 512.53314,40.08452 513.4474,37.614978 516.49024,39.243456 C 518.14336,40.128181 518.27372,41.143257 517.73967,48.972443 L 517.1434,57.713643 L 523.21256,51.965709 C 527.24083,48.150649 529.81182,46.421194 530.85813,46.822698 C 533.69024,47.90948 532.52912,50.688544 526.93453,56.213643 C 519.84144,63.218626 519.79846,64.490837 526.68453,63.614085 C 529.57203,63.246441 532.69245,62.555942 533.61879,62.079642 C 536.36129,60.669523 538.17293,61.066694 541.0157,63.701292 C 544.82655,67.233068 543.06632,68.79443 534.30002,69.658239 L 527.19864,70.357991 L 529.93472,73.213841 C 531.43956,74.784559 537.45514,79.327331 543.30266,83.30889 C 549.15019,87.290451 556.18453,92.401391 558.93453,94.666551 C 566.13367,100.59642 569.38128,102.46083 571.53178,101.89846 C 572.92973,101.53289 575.23566,103.40047 580.34801,109.0388 L 587.27114,116.67419 L 586.70742,106.44392 C 586.16342,96.571421 586.21638,96.213641 588.22173,96.213641 C 591.42828,96.213641 591.83939,99.905001 589.97585,111.96364 C 589.6996,113.75114 589.86014,115.21364 590.33259,115.21364 C 590.80503,115.21364 593.31043,112.7335 595.90014,109.70222 C 601.25488,103.43442 604.11419,101.4933 605.68226,103.06137 C 606.39294,103.77205 604.82475,106.06317 600.65646,110.40401 L 594.59764,116.71364 L 604.48037,116.71364 C 612.33674,116.71364 614.70191,117.05245 616.01548,118.36602 C 617.55199,119.90252 617.53696,120.08608 615.80119,120.98349 C 614.77453,121.51428 610.22968,122.53805 605.70154,123.25852 L 597.46854,124.56847 L 603.03163,130.40078 C 608.70957,136.35352 609.37269,138.47753 605.72194,139.01802 C 604.35336,139.22064 601.61333,137.42199 597.52626,133.63808 L 591.38651,127.95376 L 591.99403,133.8337 C 592.32816,137.06767 592.76598,140.25306 592.96697,140.91236 C 593.52704,142.74952 590.46869,148.21364 588.88034,148.21364 C 586.8499,148.21364 586.23596,144.62569 586.60751,134.93086 C 586.80953,129.65946 586.5682,126.62564 585.97613,126.99362 C 584.47547,127.92629 580.4552,131.32994 575.38108,135.96364 C 570.6648,140.27055 568.88587,141.06766 568.24969,139.15912 C 567.9253,138.18596 558.27784,145.18382 552.43453,150.63075 C 549.51224,153.35481 530.07659,167.36614 523.18632,171.71604 L 518.43811,174.71364 L 518.35754,215.71364 C 518.24607,272.43786 518.12095,269.37854 520.63935,271.50615 C 521.80631,272.49203 545.62264,284.74276 573.56453,298.73 L 624.36797,324.16133 L 624.28937,268.93749 L 624.21076,213.71364 L 617.85053,220.63686 C 611.84076,227.1786 611.34894,227.49567 608.9249,226.39121 C 606.7247,225.38873 606.51651,224.92897 607.46243,223.1615 C 608.06904,222.02804 609.1894,220.8612 609.95211,220.56852 C 610.71482,220.27584 612.92771,218.09739 614.86964,215.72753 L 618.40041,211.41869 L 609.16747,210.56616 C 600.88537,209.80144 599.93453,209.50767 599.93453,207.71364 C 599.93453,205.88062 600.76786,205.67189 609.91564,205.21364 L 619.89675,204.71364 L 615.01151,200.71688 C 608.31775,195.24052 605.30899,188.21364 609.65789,188.21364 C 611.07428,188.21364 613.95347,190.39133 617.59066,194.21364 C 620.73083,197.51364 623.55532,200.21364 623.8673,200.21364 C 624.17927,200.21364 624.43453,196.44374 624.43453,191.83608 C 624.43453,182.56717 625.80712,179.72909 628.82861,182.75055 C 630.03921,183.96117 630.43451,186.35329 630.43451,192.46816 L 630.43451,200.57981 L 637.08481,193.89673 C 640.74251,190.22103 644.29441,187.21364 644.97791,187.21364 C 649.07471,187.21364 645.91211,194.36631 639.11651,200.46967 L 634.93451,204.22569 L 643.26941,203.9755 C 650.49501,203.7586 651.79031,203.97979 653.00241,205.63743 C 655.54201,209.11048 653.15011,210.21364 643.08011,210.21364 L 633.97071,210.21364 L 640.20261,215.99836 C 646.35721,221.7113 647.76441,224.48934 645.03431,225.53696 C 643.31821,226.1955 638.76961,222.93486 634.12821,217.7189 L 630.65131,213.81167 L 629.98771,223.26265 C 629.62271,228.4607 629.46151,252.7944 629.62931,277.33756 L 629.93451,321.96147 L 640.93451,316.72229 C 683.08151,296.64814 730.85391,272.99315 731.66921,271.79414 C 732.67831,270.31001 732.63381,215.45481 731.62291,214.83007 C 731.17651,214.55419 728.47651,216.74733 725.62281,219.70372 C 720.22991,225.29064 716.93151,227.11062 715.24881,225.42788 C 714.12951,224.30861 716.41681,219.23137 719.37131,216.27688 C 720.54251,215.10564 721.02901,213.54294 720.72211,211.93748 C 720.27491,209.5982 719.77901,209.4023 713.39221,209.0414 C 709.62451,208.82851 706.25631,208.36871 705.90721,208.01963 C 705.55811,207.67055 705.77481,206.44639 706.38871,205.29929 C 707.37301,203.45999 708.42211,203.21364 715.26971,203.21364 C 719.81771,203.21364 723.51411,203.69321 724.19211,204.37126 C 725.06901,205.24808 725.71651,205.22449 726.86181,204.27398 C 728.15751,203.19865 727.51051,202.37006 722.34021,198.48348 C 713.14391,191.5705 711.14801,187.21364 717.17741,187.21364 C 719.02361,187.21364 721.25551,188.72139 724.70181,192.29688 C 727.39661,195.09266 729.74791,197.23016 729.92701,197.04688 C 730.10611,196.8636 730.57451,193.11364 730.96791,188.71364 C 731.82281,179.15116 732.82621,176.04297 734.81231,176.8051 C 736.98041,177.6371 737.81391,181.83407 737.57431,190.71364 L 737.35851,198.71364 L 739.51221,196.21364 C 740.69681,194.83864 742.17641,193.01603 742.80021,192.1634 C 744.66111,189.62014 748.72401,187.21364 751.15701,187.21364 C 755.32971,187.21364 753.92091,191.14471 747.68451,196.90336 L 741.93451,202.21288 L 750.11311,202.21326 C 756.21441,202.21354 758.69081,202.61276 759.86311,203.78507 C 763.59211,207.51406 760.70141,209.20341 750.48451,209.26609 C 742.12421,209.31738 741.98981,209.35621 744.42481,211.01609 C 745.79451,211.94974 748.22371,213.95114 749.82311,215.46364 C 751.42251,216.97614 753.11161,218.21364 753.57661,218.21364 C 754.04151,218.21364 754.27011,219.22614 754.08451,220.46364 C 753.84861,222.03614 752.95481,222.80818 751.11631,223.0276 C 749.12871,223.2648 747.27921,222.21309 743.55101,218.72587 C 740.83701,216.18724 738.40661,214.47096 738.15001,214.91191 C 737.89341,215.35286 737.80651,228.49505 737.95691,244.11678 C 738.21071,270.46918 738.36331,272.59911 740.07071,273.61678 C 741.83811,274.67019 752.41351,280.19271 788.70721,299.01511 C 822.62831,316.60702 831.80601,321.21364 832.93321,321.21364 C 833.79151,321.21364 834.01711,308.67159 833.81651,272.10821 C 833.66831,245.10022 833.24871,221.64401 832.88391,219.98329 C 832.45191,218.01634 832.65541,216.69518 833.46761,216.19319 C 834.15341,215.76936 834.92811,213.28148 835.18931,210.66456 C 835.82551,204.28991 842.32191,191.68002 847.49571,186.77735 C 853.46411,181.12173 856.95921,179.57858 865.63061,178.77039 C 872.70751,178.11082 873.81921,178.27412 879.44741,180.79992 C 896.89701,188.63084 904.53141,209.9427 895.90921,226.75411 C 892.32061,233.7509 886.52181,237.76089 877.59011,239.4219 C 866.56101,241.47297 860.18491,238.04039 855.87841,227.73347 C 852.18481,218.89352 859.11131,203.21364 866.70981,203.21364 C 869.78141,203.21364 876.70771,207.05341 878.84971,209.94358 C 880.75361,212.51266 880.75151,212.53852 878.48891,214.3707 C 875.44311,216.83702 874.74251,216.70986 873.01961,213.37812 C 871.78221,210.98536 871.06891,210.61369 868.45101,210.99791 C 866.74481,211.24833 863.97701,212.82504 862.30031,214.5017 C 859.85221,216.94976 859.36571,218.11934 859.82981,220.43994 C 860.14771,222.02932 861.08881,224.01074 861.92111,224.8431 C 862.75351,225.67547 863.43451,226.67733 863.43451,227.06946 C 863.43451,227.46159 864.67381,228.51449 866.18851,229.40924 C 870.25631,231.81216 882.57301,230.36623 886.10011,227.0717 C 890.02831,223.40244 891.43651,219.80704 891.41071,213.5133 C 891.36121,201.49695 887.33041,193.6075 878.90001,189.0265 C 865.38061,181.6802 850.63071,189.30573 844.77341,206.66954 C 840.64801,218.89928 840.45891,227.21237 840.59791,390.21364 C 840.73981,556.55445 840.69781,551.58699 841.97671,553.3108 C 842.54901,554.08236 843.62231,556.51364 844.36171,558.71364 C 847.71531,568.69222 853.94711,572.53889 866.93451,572.64703 C 881.42721,572.7677 889.28181,566.34328 891.62171,552.45486 C 894.12011,537.62554 888.00451,528.21364 875.87031,528.21364 C 870.19461,528.21364 863.96401,531.44268 862.55421,535.11478 C 860.83251,539.59947 860.28731,545.69629 861.35651,548.50851 C 862.15661,550.61278 863.04641,551.21364 865.36271,551.21364 C 869.84441,551.21364 872.99991,549.37623 874.54591,545.86629 C 875.44741,543.81946 876.77631,542.59467 878.33441,542.37445 C 880.66861,542.04454 880.71731,542.17792 880.11651,547.25094 C 879.29361,554.19931 877.61811,556.44697 872.04231,558.08273 C 860.96751,561.33171 853.43451,554.60949 853.43451,541.47767 C 853.43451,534.93872 856.04321,529.6509 861.34881,525.43525 C 866.37501,521.44163 866.65821,521.30909 872.55881,520.19007 C 879.59441,518.85579 887.56041,521.07565 891.76201,525.54141 C 903.79551,538.33149 902.34341,561.20175 888.73731,573.17829 C 881.90431,579.19297 878.46511,580.39177 866.43451,580.95243 C 856.68051,581.40699 855.79921,581.29157 854.02951,579.3277 C 852.98181,578.16497 851.74041,577.21364 851.27091,577.21364 C 847.85991,577.21364 835.91511,560.83837 835.08931,555.03005 C 834.82991,553.20602 834.55041,551.48864 834.46811,551.21364 C 834.38571,550.93864 834.35961,525.1789 834.41001,493.96977 L 834.50171,437.22591 L 831.71811,438.46929 C 823.57561,442.10638 760.88711,474.39909 759.45751,475.69284 C 758.53321,476.52928 757.31071,477.21364 756.74061,477.21364 C 756.17061,477.21364 754.57881,478.0989 753.20331,479.18089 C 751.82781,480.26287 750.46261,480.90841 750.16961,480.61541 C 749.87661,480.32241 746.89141,481.46863 743.53571,483.16256 L 737.43451,486.24243 L 737.43451,530.40235 L 737.43451,574.56227 L 739.68451,572.55457 C 740.92201,571.45034 743.05951,569.52485 744.43451,568.27571 C 748.61871,564.47455 751.34421,562.96501 752.92681,563.5723 C 755.95981,564.73618 754.38491,567.94103 748.43451,572.71364 C 745.13451,575.36048 742.43451,577.69164 742.43451,577.89401 C 742.43451,578.09638 744.12201,578.17434 746.18451,578.06726 C 752.03741,577.7634 761.81021,579.20344 762.60321,580.48659 C 764.28031,583.20013 761.20981,584.21364 751.31211,584.21364 C 745.87941,584.21364 741.43451,584.5939 741.43451,585.05865 C 741.43451,585.52341 742.37291,586.75285 743.51971,587.79075 C 746.79391,590.75387 752.43451,598.81971 752.43451,600.5386 C 752.43451,605.18998 748.13141,603.16184 741.98111,595.61172 L 737.43451,590.0303 L 737.42091,596.87197 C 737.40241,606.10536 736.71071,608.39519 734.05421,608.01611 C 732.12281,607.74051 731.89011,606.93038 731.43451,598.89548 L 730.93451,590.07731 L 727.00471,595.24027 C 722.54931,601.09365 719.13071,603.69476 716.97851,602.86888 C 714.65211,601.97617 716.79481,597.33066 722.46941,590.96382 C 725.57851,587.47552 726.95221,585.24362 726.17311,584.94645 C 725.49191,584.68664 720.88701,584.39547 715.94011,584.2994 C 706.63531,584.11871 704.97191,583.58266 705.93431,581.0748 C 706.55411,579.45959 720.72061,577.15436 722.66021,578.35309 C 723.26131,578.72462 724.34271,578.80238 725.06321,578.5259 C 725.88721,578.20967 724.56341,576.59269 721.49441,574.16674 C 715.19831,569.18999 713.12231,566.2948 714.58541,564.53179 C 716.44771,562.28788 718.10971,563.01846 724.40811,568.84969 C 727.75631,571.94952 730.68531,574.29623 730.91691,574.06458 C 731.26961,573.71188 731.76231,507.0598 731.51331,493.38593 L 731.43451,489.05823 L 721.18451,494.5158 C 715.54701,497.51747 703.50951,503.79449 694.43451,508.46474 C 685.35951,513.13499 675.68451,518.13655 672.93451,519.57932 C 670.18451,521.0221 659.41191,526.59962 648.99541,531.97382 L 630.05621,541.74509 L 629.88921,554.72937 C 629.79741,561.87072 629.92871,568.71595 630.18111,569.941 L 630.64001,572.16837 L 634.78721,569.28554 C 637.06821,567.69999 639.96081,565.42983 641.21511,564.24074 C 643.60651,561.97373 646.47801,561.84035 647.18491,563.96347 C 647.41381,564.65088 644.86361,568.0641 641.51781,571.5484 C 638.17201,575.03271 635.43451,578.1659 635.43451,578.51105 C 635.43451,578.85619 639.59701,579.26797 644.68451,579.42611 L 653.93451,579.71364 L 653.60951,582.70101 C 653.43071,584.34407 652.87051,585.9442 652.36461,586.25686 C 651.85871,586.56952 648.04761,586.40754 643.89561,585.89691 C 639.74351,585.38628 636.13581,585.17901 635.87851,585.4363 C 635.62121,585.6936 637.66611,588.15947 640.42261,590.91602 C 645.62571,596.11914 645.97581,596.81109 644.54641,599.06689 C 643.31001,601.01803 639.92491,599.04101 634.72931,593.33331 L 630.52411,588.71364 L 630.47931,595.33864 C 630.41661,604.61845 629.56401,608.21364 627.42616,608.21364 C 625.12528,608.21364 624.46482,605.45063 624.44818,595.75543 L 624.43453,587.79722 L 620.18453,591.78049 C 615.2434,596.4115 609.9641,600.21364 608.47502,600.21364 C 605.84123,600.21364 607.86848,595.44429 612.68453,590.31026 L 617.93453,584.71364 L 610.1848,584.16391 C 601.7563,583.56604 599.27184,582.31952 601.39936,579.75602 C 602.37804,578.57678 604.78299,578.21364 611.61397,578.21364 L 620.54853,578.21364 L 614.49153,572.60593 C 608.50426,567.06277 607.04489,563.96087 609.90745,562.8624 C 611.46672,562.26406 615.70867,565.42559 621.11266,571.21364 L 624.38041,574.71364 L 624.40747,559.36801 C 624.43237,545.24914 624.26283,543.78125 622.28671,541.00604 C 620.14544,537.9989 607.28227,531.404 539.68453,498.65616 L 518.43453,488.36156 L 518.46437,529.0376 L 518.49421,569.71364 L 522.21437,565.56067 C 528.08291,559.00936 532.43453,556.94233 532.43453,560.70605 C 532.43453,561.34354 530.42152,564.53104 527.96118,567.78938 C 525.50083,571.04772 523.47583,574.05114 523.46118,574.46364 C 523.44652,574.87614 527.51442,575.21364 532.50095,575.21364 L 541.56737,575.21364 L 541.25095,577.96364 C 540.93558,580.70448 540.90537,580.7146 532.18453,581.00257 C 527.37203,581.16149 523.43453,581.54411 523.43453,581.85286 C 523.43453,582.1616 525.37999,584.38754 527.75778,586.7994 C 533.19697,592.31653 535.19488,595.85329 533.7107,597.33747 C 532.23735,598.81082 530.30238,597.60701 523.80217,591.17308 L 518.43453,585.86016 L 518.43453,593.30102 C 518.43453,598.15438 519.10386,602.57309 520.35933,606.0079 C 522.68482,612.37017 528.90247,623.93165 531.52933,626.77809 C 532.57719,627.91354 533.43453,629.79948 533.43453,630.96907 C 533.43453,632.13867 533.91761,633.39416 534.50803,633.75907 C 535.09846,634.12397 537.55389,637.49959 539.96453,641.26045 C 546.31565,651.16884 548.41123,653.34921 550.87178,652.60907 C 552.00629,652.26781 561.33835,647.8396 571.60969,642.76861 L 590.28484,633.54862 L 587.78104,629.13113 C 586.40394,626.70151 584.57552,623.93458 583.71787,622.9824 C 581.94371,621.01268 583.10551,618.79445 586.35659,617.94427 C 588.97704,617.25901 589.74825,617.97336 593.39481,624.46364 C 595.17166,627.62614 596.96062,630.21364 597.37027,630.21364 C 598.67494,630.21364 610.92076,623.88663 611.26786,623.03321 C 611.98362,621.27337 615.17187,622.34176 616.24718,624.70179 C 617.57881,627.6244 616.85166,630.21364 614.69927,630.21364 C 613.54747,630.21364 603.87591,635.07075 601.60537,636.78947 C 601.42433,636.92651 602.66086,639.66551 604.35322,642.87614 C 608.08498,649.95577 608.12131,650.57969 604.88748,652.05312 C 601.01965,653.81543 600.66797,653.61156 597.8328,647.96364 C 593.79471,639.91939 594.06226,640.05333 587.62907,642.85547 C 584.49707,644.21969 581.16021,645.75395 580.21381,646.26494 C 579.26742,646.77593 573.5526,649.6797 567.51422,652.71776 C 561.47584,655.75581 556.28573,658.64539 555.98064,659.13904 C 554.80845,661.03568 559.22783,666.51425 566.16054,671.75874 C 584.96397,685.98326 604.90711,692.66309 627.93453,692.44955 C 647.62161,692.26698 659.38011,689.6818 675.72631,681.94224 C 678.81041,680.48197 683.57741,678.55336 686.31961,677.65644 C 693.29711,675.37422 702.11031,666.64619 706.41371,657.7567 C 707.78141,654.93135 708.43271,651.28314 708.57071,645.67438 C 708.74611,638.54756 708.46291,637.1182 706.06501,633.02645 C 703.05001,627.88173 698.75351,623.21364 697.03331,623.21364 C 696.41271,623.21364 694.22571,622.31364 692.17331,621.21364 C 687.28221,618.59213 686.48911,618.66709 681.59321,622.21364 C 679.31551,623.86364 677.07021,625.21364 676.60371,625.21364 C 675.25831,625.21364 673.43451,630.00435 673.43451,633.53819 C 673.43451,637.43365 675.75011,641.00293 679.10481,642.27837 C 680.89131,642.9576 681.48501,643.83516 681.25391,645.45504 C 680.83391,648.39818 678.09061,648.81326 673.30921,646.65713 C 668.85591,644.64899 666.55211,640.83786 665.78701,634.21364 C 664.85091,626.10839 670.79791,616.76788 678.85341,613.69148 C 684.00721,611.7232 694.78901,612.08817 700.93451,614.43894 C 705.90211,616.33912 711.88731,623.79157 713.95021,630.64514 C 715.86571,637.00925 715.80101,650.51569 713.83001,655.71364 C 712.99581,657.91364 711.84361,661.26967 711.26951,663.17148 C 709.92331,667.63108 698.76331,678.75769 691.10561,683.27509 C 671.93211,694.58572 654.88781,699.62444 632.11191,700.71504 C 626.70945,700.97373 621.86026,701.45052 621.33593,701.77458 C 620.4871,702.29918 613.99094,701.03154 601.93453,697.98864 C 585.46385,693.83162 566.73396,684.81736 556.80517,676.26892 C 554.53402,674.31351 551.60902,671.81364 550.30517,670.71364 C 549.00132,669.61364 547.25519,667.66477 546.42488,666.38281 L 544.91523,664.05198 L 531.92488,668.90972 L 518.93453,673.76747 L 518.64955,683.99056 C 518.36259,694.28436 519.173,696.53728 521.51758,691.96364 C 523.37553,688.33928 529.69123,682.21364 531.57009,682.21364 C 534.06441,682.21364 534.81555,685.7025 532.93812,688.56781 C 531.28449,691.09158 524.26233,696.21364 522.45597,696.21364 C 521.89418,696.21364 521.43453,696.93354 521.43453,697.81342 C 521.43453,699.19215 522.51968,699.33481 529.28783,698.84591 C 534.96279,698.43597 537.64027,698.64359 538.94061,699.59442 C 541.91873,701.77208 539.7844,703.51318 534.82238,702.95389 C 532.42905,702.68413 530.71425,702.85721 531.01171,703.33852 C 531.30918,703.81984 531.10256,704.21364 530.55256,704.21364 C 530.00256,704.21364 529.27445,703.76364 528.93453,703.21364 C 527.96068,701.63792 526.43375,702.04803 527.0729,703.71364 C 527.43739,704.66348 527.05911,705.21364 526.04152,705.21364 C 525.15767,705.21364 524.43453,704.61658 524.43453,703.88683 C 524.43453,702.98142 523.48172,702.69987 521.43453,703.00033 C 519.78453,703.2425 518.43453,703.73331 518.43453,704.09102 C 518.43453,704.44873 521.13453,707.73297 524.43453,711.38933 C 527.73453,715.0457 530.43453,718.75195 530.43453,719.62545 C 530.43453,722.6034 527.05025,721.22184 522.68934,716.46364 L 518.33594,711.71364 L 518.73204,719.41683 C 519.15153,727.57473 518.50684,729.21364 514.87831,729.21364 C 512.90589,729.21364 512.6654,728.53394 512.05713,721.24023 z M 619.62203,700.53053 C 618.90016,700.24166 618.03765,700.27718 617.70536,700.60947 C 617.37307,700.94176 617.9637,701.17811 619.01786,701.13469 C 620.18281,701.08671 620.41976,700.84975 619.62203,700.53053 z M 538.43453,657.27486 C 538.43453,656.72705 535.63469,652.10167 532.21266,646.99624 C 528.79063,641.89081 524.29063,634.34714 522.21266,630.23252 L 518.43453,622.7514 L 518.43453,645.31068 L 518.43453,667.86996 L 528.43453,663.07042 C 533.93453,660.43067 538.43453,657.82267 538.43453,657.27486 z M 510.504,666.46364 C 510.54221,666.05114 510.73077,655.20732 510.92301,642.36625 L 511.27255,619.01887 L 505.98376,629.57004 C 503.07493,635.37319 497.92656,643.99155 494.54293,648.72196 L 488.39089,657.3227 L 497.16271,661.285 C 501.98721,663.46426 506.60953,665.66326 507.43453,666.17166 C 509.31316,667.32935 510.41411,667.43408 510.504,666.46364 z M 624.43453,513.57614 L 624.43453,492.93863 L 621.42573,496.82614 C 615.74786,504.1622 614.58096,505.21364 612.11719,505.21364 C 607.97706,505.21364 608.3692,502.75435 613.49129,496.59594 C 616.18214,493.36068 618.39517,490.2043 618.40914,489.58178 C 618.42589,488.83485 615.46536,488.39934 609.70395,488.3012 C 600.67743,488.14744 598.74172,487.46145 599.77036,484.78086 C 600.20338,483.65242 601.85042,483.18397 605.65315,483.10766 C 614.19915,482.93617 617.30982,482.67168 617.91654,482.06497 C 618.43033,481.55117 615.72917,478.94506 608.04505,472.54087 C 605.30217,470.25486 605.37834,467.21364 608.17847,467.21364 C 609.01995,467.21364 613.0218,470.17909 617.07148,473.80354 L 624.43453,480.39343 L 624.43453,457.37092 C 624.43453,435.11045 624.36731,434.32708 622.40378,433.70388 C 620.98501,433.25358 614.73175,435.84216 601.65378,442.29348 C 591.35819,447.37225 569.20953,458.11687 552.43453,466.1704 C 535.65953,474.22394 521.03453,481.32631 519.93453,481.95346 C 518.184,482.9515 520.99051,484.5754 542.43453,494.97231 C 555.90953,501.50553 568.95953,507.80318 571.43453,508.96708 C 573.90953,510.13099 586.73033,516.2876 599.92519,522.64845 C 613.12005,529.00931 624.03255,534.21364 624.17519,534.21364 C 624.31783,534.21364 624.43453,524.92676 624.43453,513.57614 z M 661.17731,518.5815 C 678.09381,509.98382 694.40951,501.46994 697.43451,499.66175 C 700.45951,497.85357 708.26521,493.83119 714.78041,490.72314 C 721.29571,487.61509 726.47071,484.91895 726.28041,484.73171 C 725.76841,484.22782 687.10501,464.98382 662.43451,452.95356 C 639.71171,441.87306 631.73561,438.21364 630.30741,438.21364 C 629.14271,438.21364 629.17901,475.93768 630.34441,476.65793 C 630.84481,476.96721 633.34251,474.29377 635.89491,470.71695 C 638.93041,466.46309 641.22071,464.21364 642.51641,464.21364 C 646.36251,464.21364 645.63511,467.07203 640.02091,474.02062 C 636.94841,477.82343 634.43451,481.19029 634.43451,481.50254 C 634.43451,481.81479 637.71531,482.03628 641.72521,481.99474 C 649.19651,481.91734 653.43451,483.23734 653.43451,485.64183 C 653.43451,487.69189 650.84381,488.29959 641.98751,488.32696 L 633.93451,488.35184 L 636.96891,491.03274 C 638.63781,492.50724 641.48341,494.83864 643.29231,496.21364 C 646.90001,498.95587 647.91451,502.43381 645.26681,502.9828 C 643.31171,503.38818 634.51111,497.28864 632.65181,494.23955 C 629.87201,489.68101 629.31101,493.30677 629.62351,513.80939 C 629.79461,525.03066 630.04381,534.21214 630.17731,534.21267 C 630.31091,534.2132 644.26091,527.17918 661.17731,518.5815 z M 400.43453,513.5912 C 400.43453,493.93183 401.01914,494.86433 393.44349,502.43998 C 389.42261,506.46085 386.23239,507.1181 385.64104,504.04744 C 385.46699,503.14365 387.46476,499.99882 390.08053,497.05892 L 394.83648,491.71364 L 385.99074,490.71364 C 379.32869,489.9605 376.87217,489.2746 376.03977,487.93517 C 374.21322,484.99603 377.06624,484.23359 387.86411,484.77528 L 397.7937,485.27341 L 394.76617,482.49352 C 393.10102,480.96459 390.05217,478.17398 387.99093,476.29217 C 385.92969,474.41037 383.88809,471.93537 383.45404,470.79217 C 382.68747,468.7732 383.82152,466.21364 385.48263,466.21364 C 385.92439,466.21364 389.46584,469.47614 393.35251,473.46364 L 400.41918,480.71364 L 400.42686,459.96364 C 400.43225,445.37848 400.10361,439.21364 399.32068,439.21364 C 398.70807,439.21364 396.57057,440.1025 394.57068,441.18888 C 389.3145,444.04417 341.96065,466.91365 328.43453,473.12926 C 322.10953,476.03576 313.86014,479.93384 310.10256,481.79166 L 303.27058,485.1695 L 309.10256,488.1269 C 319.33262,493.31457 328.54292,497.8187 343.93453,505.16083 C 373.71042,519.36458 384.05459,524.31668 390.93453,527.66128 C 394.78453,529.53292 398.49703,531.09787 399.18453,531.13895 C 400.14007,531.19604 400.43453,527.06232 400.43453,513.5912 z M 425.0307,522.63961 C 434.87781,517.92389 444.95953,513.1323 447.43453,511.99163 C 449.90953,510.85096 462.05953,505.0003 474.43453,498.99016 C 486.80953,492.98003 499.07203,487.1412 501.68453,486.015 C 504.29703,484.88879 506.43453,483.63795 506.43453,483.23535 C 506.43453,482.83275 494.39703,476.73265 479.68453,469.67957 C 464.97203,462.6265 442.87186,451.95742 430.57303,445.97051 C 418.27421,439.98361 407.57508,435.32947 406.79718,435.62797 C 405.63592,436.07359 405.39943,439.93262 405.47564,457.19218 C 405.5267,468.75398 405.87583,478.20127 406.2515,478.18615 C 406.62717,478.17104 408.95953,475.72294 411.43453,472.74594 C 415.78372,467.51461 418.83433,465.91303 419.67063,468.42195 C 420.26928,470.21789 417.97116,474.15477 413.37106,479.21364 L 409.27914,483.71364 L 419.43375,484.34055 C 429.936,484.98893 431.94394,485.72256 430.87076,488.51922 C 429.99374,490.80471 424.73515,491.56892 415.6625,490.72937 L 407.93453,490.01424 L 410.43453,492.70484 C 411.80953,494.18466 415.07203,496.96785 417.68453,498.8897 C 421.4656,501.6712 422.43453,502.97856 422.43453,505.29881 C 422.43453,506.90197 422.0057,508.21364 421.48158,508.21364 C 419.45131,508.21364 414.86524,505.64973 413.45995,503.72904 C 412.64893,502.62057 410.50962,500.13864 408.70593,498.21364 L 405.42648,494.71364 L 405.93937,512.21364 C 406.22146,521.83864 406.44827,530.05114 406.44339,530.46364 C 406.43852,530.87614 406.59031,531.21364 406.7807,531.21364 C 406.9711,531.21364 415.1836,527.35533 425.0307,522.63961 z M 295.22137,452.9117 L 294.93453,443.71364 L 292.51828,447.21364 C 291.18934,449.13864 288.55916,452.03274 286.67345,453.64497 C 283.78624,456.11344 282.94619,456.38976 281.35327,455.39497 C 280.31289,454.74524 278.78056,454.21364 277.9481,454.21364 C 275.8302,454.21364 276.02616,453.61289 279.34315,449.93699 C 282.79773,446.10861 290.43405,435.99126 290.43565,435.24055 C 290.43627,434.95075 285.71285,434.86706 279.93916,435.05456 C 270.89517,435.34828 269.35362,435.16636 268.80658,433.74079 C 267.59664,430.58775 272.08657,428.76857 280.67946,428.93026 L 288.47236,429.07691 L 283.87699,423.69797 C 280.72606,420.00976 279.38423,417.59844 279.60807,416.02655 C 280.20904,411.80637 283.05381,412.82613 288.10408,419.07209 C 290.76083,422.35784 293.49703,425.29474 294.18453,425.59853 C 295.82219,426.32217 296.01805,386.69231 294.38181,385.68106 C 293.80282,385.32322 287.16532,388.06062 279.63181,391.76416 C 272.09831,395.4677 263.45953,399.71322 260.43453,401.19864 C 229.98723,416.14971 198.43453,432.33403 198.43453,433.00029 C 198.43453,433.45499 220.14703,444.41817 246.68453,457.36292 L 294.93453,480.89881 L 295.22137,471.50429 C 295.37913,466.3373 295.37913,457.97063 295.22137,452.9117 z M 306.43453,479.03504 C 310.13466,476.73977 325.52947,469.00089 333.93453,465.21095 C 342.42214,461.38379 395.45064,436.00904 398.37501,434.37543 C 401.10544,432.85017 400.50264,431.46586 396.22484,429.43764 C 372.37497,418.12976 336.23144,400.68333 325.01422,395.06437 C 317.35805,391.22923 308.45411,387.01873 305.22768,385.70772 L 299.36146,383.32406 L 299.51068,404.01885 C 299.65159,423.56075 299.75112,424.57487 301.29722,422.22262 C 302.19774,420.85256 304.4554,418.0334 306.31425,415.95783 C 308.97433,412.98761 309.98574,412.42622 311.06425,413.3213 C 313.40929,415.26751 312.59857,417.85815 307.93453,423.32222 C 305.45953,426.22175 303.43453,428.99889 303.43453,429.49363 C 303.43453,429.98837 306.47203,430.30286 310.18453,430.19248 C 321.25569,429.86334 323.17498,430.09487 323.84479,431.84039 C 325.11604,435.15321 322.49056,436.40951 315.3161,435.92139 C 311.61144,435.66933 307.42306,435.68434 306.00859,435.95473 C 303.54879,436.42495 303.74702,436.74037 310.56223,443.20035 C 317.66621,449.93404 318.7223,452.42574 314.72329,453.01785 C 313.29857,453.2288 310.87269,451.46196 306.81025,447.25457 C 299.60444,439.79164 299.82714,439.24313 300.22912,463.46364 C 300.44525,476.48649 300.84473,481.21264 301.72912,481.2099 C 302.39209,481.20785 304.50953,480.22916 306.43453,479.03504 z M 511.43453,459.5912 C 511.43453,438.32321 511.27462,437.88221 506.41433,445.74633 C 504.24081,449.26315 497.90295,453.62117 496.35409,452.66392 C 494.39488,451.45307 496.90216,446.4826 502.23692,441.00172 C 508.84199,434.21573 508.40603,433.72676 496.37173,434.42342 C 490.48966,434.76393 488.1164,434.53524 487.29796,433.54909 C 486.48065,432.56428 486.51651,431.81979 487.43453,430.71364 C 488.37003,429.58644 490.88577,429.21364 497.55697,429.21364 C 502.43963,429.21364 506.43453,428.79162 506.43453,428.27581 C 506.43453,427.76001 503.50978,424.72251 499.93509,421.52581 C 493.64589,415.90166 491.9826,412.70803 494.78298,411.63342 C 496.61112,410.9319 502.96192,416.42584 509.32526,424.21364 L 511.36799,426.71364 L 511.40126,405.46364 C 511.41956,393.77614 511.26576,384.21364 511.05948,384.21364 C 509.18681,384.21364 414.43037,431.27191 414.43978,432.19724 C 414.44267,432.48126 422.20517,436.49317 431.68978,441.11259 C 449.85154,449.95817 452.96194,451.38663 463.43453,455.69141 C 467.00953,457.16092 472.18453,459.81301 474.93453,461.58493 C 477.68453,463.35686 485.55953,467.46054 492.43453,470.70422 C 499.30953,473.94791 506.05953,477.18672 507.43453,477.90158 C 508.80953,478.61644 510.27203,479.20409 510.68453,479.20748 C 511.09703,479.21087 511.43453,470.38354 511.43453,459.5912 z M 760.74251,466.57731 C 765.58691,463.62729 770.46341,461.21364 771.57911,461.21364 C 773.44451,461.21364 789.41681,453.26032 816.82481,438.68379 C 826.62621,433.47107 827.53391,432.75952 825.90361,431.56739 C 824.03621,430.20188 746.19331,391.44984 741.05531,389.32786 C 739.47171,388.67386 738.00641,388.30844 737.79901,388.51583 C 737.30501,389.00978 737.22591,423.33834 737.71761,423.83001 C 737.92501,424.03748 740.61021,421.67169 743.68461,418.57272 C 747.43961,414.78762 749.79301,413.13723 750.85441,413.54454 C 753.58211,414.59125 752.62051,416.60119 746.45021,422.75009 C 743.15881,426.03004 740.45881,429.04592 740.45021,429.45205 C 740.44161,429.85817 744.53731,430.15845 749.55181,430.11934 C 759.43861,430.04224 762.02081,431.05594 759.17831,433.89842 C 757.48331,435.59345 749.84311,435.97776 742.93891,434.71529 L 739.93451,434.16591 L 742.41091,435.93978 C 743.77291,436.9154 746.24791,438.87522 747.91091,440.29493 C 749.57391,441.71463 751.75361,443.17512 752.75471,443.54045 C 754.97211,444.34968 754.68041,448.55124 752.37631,448.98981 C 751.51931,449.15294 747.80681,447.03542 744.12631,444.2842 L 737.43451,439.28198 L 737.43451,459.26038 L 737.43451,479.23878 L 744.68451,475.58988 C 748.67201,473.58298 755.89811,469.52732 760.74251,466.57731 z M 731.45651,470.18879 C 731.64321,460.1477 730.31661,442.21364 729.38711,442.21364 C 728.97641,442.21364 726.41431,444.68864 723.69351,447.71364 C 718.75351,453.20614 715.21501,454.69006 714.08431,451.74345 C 713.47701,450.16071 723.83511,437.26028 725.80161,437.15025 C 726.42471,437.11539 726.03451,436.72318 724.93451,436.27867 C 723.83451,435.83415 719.58431,435.40307 715.48971,435.32069 C 710.05591,435.21138 707.53931,434.71342 706.17341,433.47732 C 702.98101,430.58829 706.09231,429.5732 717.35321,429.8298 L 727.41871,430.05916 L 722.67661,426.31741 C 720.06851,424.25945 716.67441,421.75266 715.13431,420.74677 C 713.27171,419.53019 712.43471,418.2175 712.63431,416.82597 C 713.14601,413.26029 715.95051,413.92285 721.55171,418.93267 C 731.37471,427.71858 730.66881,427.81568 729.85541,417.79042 C 729.36431,411.73812 729.48691,408.79928 730.25021,408.32755 C 730.93391,407.90503 731.43661,403.28423 731.56461,396.24644 C 731.76131,385.42899 731.65761,384.77374 729.52621,383.35853 C 726.48461,381.33895 726.20671,381.45204 687.46901,400.47928 C 669.57501,409.26847 649.48521,419.04498 642.82501,422.20487 C 636.16471,425.36475 630.39551,428.4677 630.00461,429.10031 C 629.53671,429.85735 634.18871,432.59491 643.61411,437.10917 C 651.49031,440.88143 664.23451,446.98772 671.93451,450.6787 C 706.48351,467.23966 719.22341,473.21614 720.04781,473.24928 C 720.53551,473.26889 723.18451,474.34403 725.93451,475.63849 C 728.68451,476.93295 731.02071,477.91822 731.12601,477.82799 C 731.23141,477.73776 731.38011,474.30012 731.45651,470.18879 z M 550.73915,462.18421 C 567.89661,453.91803 589.58453,443.39357 598.93453,438.79652 L 615.93453,430.43826 L 588.93453,417.22188 C 542.7914,394.63503 528.59623,387.78681 520.18453,384.05456 C 518.54862,383.32871 518.4367,384.62873 518.4678,403.99586 C 518.49945,423.70598 518.58457,424.61391 520.2178,422.6632 C 521.162,421.53546 523.50953,418.73011 525.43453,416.4291 C 528.2596,413.05219 529.38273,412.36502 531.25879,412.86559 C 534.73424,413.7929 533.32676,417.67371 527.27973,423.83698 L 522.25302,428.96032 L 531.31714,429.39368 C 536.30241,429.63203 540.71484,430.16061 541.12253,430.56831 C 541.53022,430.976 541.38289,432.07548 540.79513,433.0116 C 539.96469,434.33422 537.75455,434.8251 530.88058,435.21364 L 522.03469,435.71364 L 525.00143,438.21364 C 529.52193,442.02296 533.72777,448.00709 533.07682,449.70343 C 532.05667,452.36191 529.99802,451.34754 524.97955,445.71364 C 522.28499,442.68864 519.71004,440.21364 519.25744,440.21364 C 518.80484,440.21364 518.43453,448.53864 518.43453,458.71364 C 518.43453,468.88864 518.68411,477.21364 518.98915,477.21364 C 519.2942,477.21364 533.5817,470.4504 550.73915,462.18421 z M 223.69095,413.01904 C 225.20697,411.94614 229.25697,409.94914 232.69095,408.58126 C 244.86061,403.73362 247.27536,402.35652 247.61113,400.07248 C 247.8426,398.49794 248.7628,397.76295 250.84815,397.48698 C 252.45064,397.27491 254.90616,396.20121 256.30487,395.10099 C 257.89647,393.84904 259.67672,393.30859 261.063,393.65653 C 262.57352,394.03564 267.96333,391.92104 278.00875,387.00813 L 292.73945,379.80379 L 283.33699,375.25641 C 278.16564,372.75535 267.40953,367.60161 259.43453,363.80366 C 251.45953,360.0057 233.21936,351.11924 218.90082,344.05596 C 204.58228,336.99269 192.47202,331.21364 191.98914,331.21364 C 191.48913,331.21364 191.39401,347.24969 191.76817,368.46364 C 192.12952,388.95114 192.42727,411.00414 192.42985,417.47032 L 192.43453,429.22699 L 206.68453,422.09838 C 214.52203,418.17764 222.17492,414.09194 223.69095,413.01904 z M 428.10679,420.0712 C 447.35157,410.72625 457.18108,406.0922 470.43453,400.11609 C 474.55953,398.25608 485.54588,392.98963 494.84863,388.41286 L 511.76274,380.09145 L 508.84863,378.38498 C 506.10031,376.77558 498.40388,373.03336 449.93453,349.73928 C 415.61623,333.24611 410.40688,330.90796 409.65464,331.66019 C 409.35979,331.95504 408.55512,331.72869 407.86649,331.15717 C 406.927,330.37746 406.47095,330.8165 406.03968,332.91585 C 405.13009,337.34353 405.53048,369.21364 406.4957,369.21364 C 406.97415,369.21364 409.26971,366.51364 411.59693,363.21364 C 415.81513,357.23224 417.61393,356.09355 419.10055,358.46364 C 420.57657,360.81681 419.22628,363.71774 413.74764,369.96364 L 408.26541,376.21364 L 411.59997,376.41633 C 413.43398,376.52781 416.28453,376.71405 417.93453,376.83019 C 419.58453,376.94633 422.50953,377.08701 424.43453,377.14281 C 426.35953,377.19861 428.59164,377.6599 429.39477,378.1679 C 430.64141,378.95644 430.57439,379.40162 428.93658,381.21138 C 427.16011,383.17435 426.34909,383.28458 417.97634,382.70095 L 408.93453,382.07068 L 412.93453,385.94754 C 422.3423,395.06567 424.96859,400.21364 420.21252,400.21364 C 418.75412,400.21364 415.83964,397.89396 411.73171,393.46364 L 405.47291,386.71364 L 405.56838,407.21364 C 405.62089,418.48864 405.86381,428.05114 406.10821,428.46364 C 407.0302,430.0198 409.77645,428.97211 428.10679,420.0712 z M 834.33031,380.21364 L 834.27881,332.21364 L 831.75681,332.21364 C 828.82581,332.21364 804.81821,343.24776 767.93451,361.54701 C 753.63451,368.64172 740.92201,374.83296 739.68451,375.30531 C 738.23081,375.86021 737.43451,376.998 737.43451,378.52041 C 737.43451,380.63304 742.37201,383.31705 785.18451,404.47739 C 811.44701,417.45779 833.26021,428.1086 833.65821,428.14587 C 834.05621,428.18314 834.35861,406.61364 834.33031,380.21364 z M 624.30631,407.21364 C 624.19078,396.76364 623.7515,388.21364 623.33013,388.21364 C 622.90877,388.21364 620.02393,390.84436 616.91938,394.05969 C 612.41278,398.72709 610.7868,399.81248 608.85463,399.44312 C 605.12189,398.72956 605.91582,396.7575 612.43453,390.55096 C 615.73453,387.409 618.43453,384.47275 618.43453,384.02597 C 618.43453,383.57919 615.25495,383.21364 611.36879,383.21364 C 607.48263,383.21364 603.43263,382.74781 602.36879,382.17846 C 600.20952,381.02285 599.74901,378.2769 601.68453,378.09829 C 602.37203,378.03485 603.38453,377.87839 603.93453,377.7506 C 604.48453,377.62282 608.43769,377.44973 612.71933,377.36595 L 620.50412,377.21364 L 617.21933,374.39989 C 615.41269,372.85233 612.44708,370.55392 610.62908,369.29231 C 606.87702,366.68856 606.36197,362.44019 609.87237,363.05061 C 611.9043,363.40395 619.68202,369.29049 622.63986,372.71364 C 624.28585,374.61857 624.36957,373.6798 624.40126,352.96364 C 624.41956,341.00114 624.08337,331.21364 623.65417,331.21364 C 621.27066,331.21364 569.04688,355.61672 563.12091,359.49956 C 561.81115,360.35775 558.08341,362.18135 554.83703,363.55201 C 551.59066,364.92267 543.08453,368.83766 535.93453,372.25199 L 522.93453,378.45987 L 549.43453,391.41748 C 591.97237,412.21706 621.34189,425.94679 623.72545,426.14715 C 624.16045,426.18372 624.42184,417.66364 624.30631,407.21364 z M 400.43453,406.0416 L 400.43453,386.86956 L 394.43946,392.7916 C 391.14217,396.04872 387.65467,398.71364 386.68946,398.71364 C 383.69167,398.71364 385.23264,394.31398 390.2768,388.47135 C 392.83855,385.50409 394.70953,382.76972 394.43453,382.39498 C 394.15953,382.02024 392.13453,381.69641 389.93453,381.67534 C 382.44063,381.6036 378.93629,381.18419 377.43453,380.17932 C 374.76385,378.3923 379.10809,376.21538 385.37566,376.19999 C 388.43304,376.19248 391.95971,375.91168 393.2127,375.57599 C 395.3573,375.00143 395.16675,374.64151 389.9627,369.43747 C 386.92221,366.39697 384.43453,363.12592 384.43453,362.16845 C 384.43453,357.36298 391.04382,360.61328 396.45123,368.078 C 398.09895,370.3526 399.67518,372.21364 399.95398,372.21364 C 400.23278,372.21364 400.34246,363.64205 400.19771,353.16567 C 399.94181,334.64428 399.87924,334.13423 397.93453,334.71585 C 396.83453,335.04484 395.48453,335.43053 394.93453,335.57293 C 394.03471,335.80591 368.80602,348.19641 322.43453,371.17967 C 313.35953,375.67754 305.93453,379.53871 305.93453,379.76005 C 305.93453,380.38281 321.86433,387.95609 332.43453,392.35855 C 348.95867,399.24083 353.84026,401.54892 357.40691,404.16586 C 361.29147,407.01607 397.23164,425.07705 399.18453,425.16033 C 400.14292,425.2012 400.43453,420.741 400.43453,406.0416 z M 664.10651,407.14586 C 682.16191,398.30857 702.22201,388.56163 708.68451,385.48598 C 715.14701,382.41033 720.43451,379.59962 720.43451,379.23996 C 720.43451,378.8803 706.14701,371.51484 688.68451,362.87226 C 671.22201,354.22968 652.43451,344.89044 646.93451,342.1184 C 641.43451,339.34636 635.22801,336.23574 633.14221,335.20591 L 629.35001,333.33349 L 629.50461,351.14638 C 629.58971,360.94347 629.99321,369.4996 630.40141,370.16 C 630.89651,370.96113 632.83371,369.46427 636.22261,365.6621 C 640.59181,360.75987 641.66031,360.0535 643.86811,360.60761 C 645.27961,360.96188 646.43441,361.58067 646.43421,361.98269 C 646.43411,362.38471 643.50911,365.84678 639.93421,369.67617 C 636.35941,373.50556 633.43451,377.01182 633.43451,377.46787 C 633.43451,377.92391 636.69701,378.01088 640.68451,377.66113 C 648.43911,376.98095 653.43451,378.14081 653.43451,380.6215 C 653.43451,382.75317 649.83751,383.6052 642.04051,383.32039 C 634.44901,383.04308 634.44451,383.10712 641.67111,388.50429 C 646.40991,392.04347 648.00291,394.82391 646.39891,396.75655 C 644.94631,398.50682 643.58061,397.83493 636.34451,391.81014 L 630.93451,387.30578 L 630.30281,390.00971 C 629.28651,394.36015 629.33311,423.21364 630.35651,423.21364 C 630.86361,423.21364 646.05111,415.98314 664.10651,407.14586 z M 351.18453,351.10701 C 378.27203,337.71195 400.43453,326.47771 400.43453,326.14202 C 400.43453,325.80633 397.39703,324.03409 393.68453,322.2037 C 373.95716,312.47746 321.40074,287.29508 311.33647,282.74668 L 299.73841,277.5051 L 299.07924,295.75271 C 298.71669,305.78889 298.80524,315.04154 299.27601,316.31415 C 300.09732,318.53437 300.249,318.44766 303.02501,314.17081 C 306.3337,309.07328 311.45981,304.10057 312.93453,304.55782 C 313.48453,304.72835 314.0771,306.07255 314.25136,307.54494 C 314.50025,309.64803 313.37465,311.47329 309.00136,316.05823 C 305.9396,319.26816 303.43453,322.41628 303.43453,323.05405 C 303.43453,323.85644 306.52462,324.21364 313.46591,324.21364 C 321.49774,324.21364 323.61301,324.51517 324.07779,325.72637 C 324.39706,326.55838 324.06903,327.94912 323.34883,328.8169 C 322.24987,330.14107 320.58427,330.2842 312.98696,329.7073 L 303.93453,329.01991 L 308.93453,334.34573 C 311.68453,337.27492 314.27203,339.83101 314.68453,340.02592 C 315.09703,340.22083 315.43453,341.46781 315.43453,342.79697 C 315.43453,347.49653 310.12315,345.31906 303.19865,337.78071 L 299.46276,333.71364 L 299.44865,355.07063 C 299.43762,371.75166 299.70821,376.32187 300.68453,375.94464 C 301.37203,375.679 324.09703,364.50207 351.18453,351.10701 z M 523.10349,374.70525 C 524.66056,373.87563 542.80953,364.95813 563.43453,354.88858 C 584.05953,344.81903 604.85577,334.60565 609.6484,332.19219 L 618.36228,327.80407 L 612.1484,324.47681 C 601.09926,318.56048 522.8875,279.49218 520.70739,278.80024 C 518.60394,278.13263 518.595,278.21777 518.56783,299.1713 L 518.54055,320.21278 L 522.23754,315.92657 C 524.27089,313.56915 526.64206,310.56552 527.50682,309.25182 C 528.57122,307.63484 529.62839,307.07405 530.77951,307.51578 C 534.56923,308.97003 533.7932,311.29794 527.35226,317.79665 L 520.99231,324.21364 L 530.7448,324.21364 C 538.87232,324.21364 540.60245,324.48767 541.12839,325.85825 C 542.35202,329.04695 538.616,330.42943 530.18453,329.90794 C 525.92203,329.64429 522.43453,329.62494 522.43453,329.86492 C 522.43453,330.1049 524.71135,333.03712 527.49412,336.38097 C 530.47369,339.96128 532.32366,343.06018 531.99412,343.91895 C 531.68635,344.72099 531.43453,345.56541 531.43453,345.79543 C 531.43453,346.02544 530.59573,346.21364 529.57053,346.21364 C 528.53132,346.21364 526.5062,344.48157 524.99384,342.29922 C 523.50186,340.14629 521.41566,337.60155 520.35784,336.64423 C 518.46599,334.93214 518.43453,335.24155 518.43453,355.55865 C 518.43453,367.44766 518.82454,376.21364 519.35349,376.21364 C 519.85892,376.21364 521.54642,375.53486 523.10349,374.70525 z M 731.46281,372.63924 C 732.00111,371.22332 732.23851,367.06082 731.99031,363.38924 C 731.74221,359.71766 731.51561,352.22596 731.48681,346.74102 L 731.43451,336.7684 L 727.12151,341.66978 C 724.03651,345.1757 722.32821,346.38684 721.12151,345.92378 C 720.19371,345.56773 719.43451,344.49897 719.43451,343.54878 C 719.43451,341.80981 723.24201,335.53519 726.69361,331.58606 C 728.54111,329.47224 728.52991,329.45412 724.96211,328.78479 C 722.98701,328.41426 718.66971,328.20858 715.36811,328.32772 C 708.90121,328.56108 706.28101,327.30845 708.25661,324.92797 C 709.28091,323.69376 714.51761,322.98848 724.18451,322.78279 C 725.97201,322.74476 727.43451,322.4522 727.43451,322.13266 C 727.43451,321.81313 724.95951,319.18954 721.93451,316.30248 C 718.30331,312.83686 716.43451,310.25111 716.43451,308.69247 C 716.43451,304.16435 718.62491,305.05747 725.42981,312.36033 L 732.28171,319.71364 L 732.35541,299.89712 L 732.42911,280.08059 L 730.18181,280.74949 C 725.35571,282.18596 673.93831,306.32612 671.99561,308.06753 C 670.86201,309.08368 666.10951,311.50736 661.43451,313.45348 C 647.74801,319.15092 632.43451,326.54829 632.43451,327.46227 C 632.43451,327.927 637.94701,330.85242 644.68451,333.9632 C 651.42201,337.07398 662.55951,342.5556 669.43451,346.14457 C 676.30951,349.73354 685.53451,354.41352 689.93451,356.54452 C 694.33451,358.67552 700.85891,362.06035 704.43311,364.06635 C 711.23441,367.88347 727.01671,374.91412 729.20931,375.10352 C 729.91041,375.16409 730.92451,374.05516 731.46281,372.63924 z M 295.29594,355.63176 C 295.12138,345.41172 294.65651,336.85083 294.26288,336.60756 C 293.86926,336.36428 292.39283,338.13502 290.98194,340.54253 C 287.74608,346.0641 285.09057,348.48566 282.75893,348.04108 C 279.97669,347.51057 280.03676,343.83981 282.88305,340.45719 C 284.28636,338.78945 285.43453,337.08236 285.43453,336.66367 C 285.43453,336.24499 286.58243,334.39745 287.98542,332.55803 C 289.38841,330.71862 290.40091,329.15289 290.23542,329.07864 C 289.78747,328.87765 281.60847,328.43543 276.15315,328.31723 C 272.75948,328.24371 271.19346,327.749 270.75743,326.61272 C 269.69427,323.84218 272.56743,323.11748 281.89993,323.80224 L 290.86533,324.46006 L 285.37558,319.44274 C 277.92275,312.63127 276.70876,310.25094 278.94617,306.83623 C 279.89128,305.3938 281.04639,304.21364 281.51308,304.21364 C 282.3503,304.21364 290.81205,314.12361 293.12572,317.81377 C 294.07054,319.32069 294.32908,315.31851 294.37572,298.46364 C 294.41702,283.54016 294.10447,277.21364 293.3259,277.21364 C 292.21287,277.21364 275.16216,285.65198 250.93453,298.19299 C 243.78453,301.89407 230.28453,308.8763 220.93453,313.70907 C 211.58453,318.54184 203.2241,323.10741 202.35579,323.85478 C 201.48748,324.60215 200.27654,325.21364 199.66481,325.21364 C 194.48389,325.21364 202.59967,329.82472 240.62115,348.48352 C 295.65976,375.49335 292.70309,374.07885 294.27392,374.15161 C 295.35812,374.20182 295.55285,370.67319 295.29594,355.63176 z M 511.55393,363.96364 C 511.87041,342.09611 511.92081,335.21471 511.76453,335.2142 C 511.67103,335.21389 508.86105,337.94712 505.52013,341.28804 C 495.03045,351.77772 491.94358,346.6519 502.20478,335.78283 L 507.93453,329.71364 L 498.07558,329.42611 C 491.09301,329.22247 487.79218,328.71414 486.76182,327.68378 C 484.07867,325.00063 486.39891,324.21364 496.99263,324.21364 L 507.4327,324.21364 L 501.93827,317.46364 C 496.66587,310.98641 495.62772,308.31444 498.06786,307.50206 C 498.6912,307.29454 501.8996,309.86533 505.19765,313.21493 C 511.17313,319.28382 511.19549,319.29534 511.58922,316.50938 C 511.80654,314.97172 512.12647,305.73626 512.30019,295.98612 L 512.61605,278.25861 L 500.14481,284.15301 C 493.28563,287.39493 486.83228,290.51824 485.80405,291.0937 C 484.77581,291.66916 477.85953,294.8957 470.43453,298.26379 C 463.00953,301.63187 451.94926,307.27345 445.85616,310.80061 C 439.76306,314.32778 434.47676,317.21364 434.10883,317.21364 C 433.7409,317.21364 430.40117,318.59234 426.6872,320.27742 C 422.97323,321.9625 418.65752,323.88892 417.09673,324.55835 C 414.34057,325.74049 414.88721,326.08268 436.09673,336.45237 C 474.05332,355.00999 509.907,372.19592 510.68453,372.20494 C 511.09703,372.20972 511.48826,368.50114 511.55393,363.96364 z M 773.93451,353.57012 C 791.53451,344.84348 811.00151,335.27551 817.19461,332.30796 L 828.45461,326.91241 L 822.89451,323.56302 C 819.83641,321.72086 817.05481,320.21364 816.71321,320.21364 C 816.37151,320.21364 815.38161,319.59059 814.51331,318.82908 C 813.64491,318.06757 804.60951,313.17916 794.43451,307.96594 C 784.25951,302.75271 773.23451,296.9963 769.93451,295.1739 C 766.63451,293.3515 758.30951,288.82351 751.43451,285.11169 L 738.93451,278.36294 L 738.64831,287.78829 C 738.49091,292.97223 738.49091,301.57527 738.64831,306.90616 L 738.93451,316.59868 L 742.86961,310.87876 C 746.61061,305.44091 750.02111,303.22209 752.38911,304.68555 C 753.04851,305.09309 751.72211,307.71234 748.92331,311.52969 C 746.42951,314.93086 743.71291,318.95114 742.88621,320.46364 L 741.38321,323.21364 L 749.21771,323.21364 C 758.27801,323.21364 761.86461,324.78562 759.44791,327.6975 C 758.27111,329.11551 756.57561,329.341 749.23511,329.05572 C 744.39421,328.86757 740.44611,328.93864 740.46151,329.21364 C 740.48621,329.65317 745.04041,333.18368 747.98731,335.04771 C 748.56631,335.41397 750.08831,337.43805 751.36961,339.54567 C 753.52351,343.0889 753.57611,343.50063 752.06781,345.00889 C 750.55961,346.51715 749.96551,346.15299 744.18561,340.17686 L 737.93451,333.71364 L 737.62521,352.46144 L 737.31591,371.20923 L 739.62521,370.32298 C 740.89531,369.83554 756.33451,362.29675 773.93451,353.57012 z M 539.43453,152.74825 C 544.65953,148.78579 550.05953,144.95803 551.43453,144.24213 C 554.78524,142.49757 580.61429,123.06007 580.17094,122.61671 C 579.65899,122.10477 549.15583,120.94509 532.93453,120.82086 L 518.93453,120.71364 L 518.93453,143.83288 L 518.93453,166.95211 L 524.43453,163.45243 C 527.45953,161.5276 534.20953,156.71072 539.43453,152.74825 z M 512.43453,142.71952 L 512.43453,120.22539 L 484.37797,120.44546 C 468.94686,120.56649 455.8616,120.9497 455.2996,121.29703 C 454.34167,121.88906 463.85117,129.55879 488.31215,147.92271 C 499.22524,156.11565 511.761,165.19097 512.18453,165.20522 C 512.32203,165.20985 512.43453,155.09128 512.43453,142.71952 z M 512.63204,114.21364 C 513.36599,110.61865 512.20235,72.213643 511.35947,72.213643 C 510.85075,72.213643 507.71812,74.930057 504.39806,78.250118 C 501.07799,81.570178 497.91828,84.012614 497.37646,83.677752 C 496.83464,83.34289 493.37687,85.238976 489.69252,87.891281 C 486.00817,90.543581 481.83947,93.435801 480.42873,94.318431 C 479.018,95.201061 474.66008,98.576061 470.74446,101.81843 C 466.82884,105.06079 462.34476,108.72299 460.77984,109.95664 C 453.2058,115.92738 453.45494,115.40103 458.43453,114.91157 C 460.90953,114.6683 464.05953,114.81583 465.43453,115.23942 C 466.80953,115.66301 477.92257,115.943 490.13016,115.86161 C 508.97645,115.73597 512.37201,115.48729 512.63204,114.21364 z M 575.43453,113.12857 C 573.50953,111.47649 567.20953,106.93686 561.43453,103.04051 C 555.65953,99.144161 549.58453,94.728431 547.93453,93.227791 C 541.79397,87.643081 533.49327,82.059303 532.36674,82.755537 C 531.6761,83.182377 529.0106,81.163308 525.75236,77.745264 C 522.75071,74.596387 520.03267,72.282174 519.71227,72.602569 C 519.39188,72.922963 518.95934,82.866526 518.75107,94.699371 L 518.37241,116.21364 L 548.65347,116.173 L 578.93453,116.13236 L 575.43453,113.12857 z "
     id="path2161" />
</svg>
